<svg width="64" height="64" viewBox="0 0 64 64" fill="none" xmlns="http://www.w3.org/2000/svg">
<path d="M57.7998 46.02C57.6598 45.74 57.3998 45.54 57.0998 45.48C55.2098 45.11 53.1198 45.46 51.2098 46.44C50.4598 44.87 49.3698 43.55 48.0098 42.65V22.01C48.0098 17.97 39.9198 15.71 31.3498 15.15C31.7698 14.32 32.0098 13.37 32.0098 12.35C32.0098 10.42 30.2398 6.78001 28.7498 4.06001C28.3898 3.41001 27.7398 3.01001 27.0098 3.01001C26.2798 3.01001 25.6298 3.40001 25.2698 4.06001C23.7798 6.78001 22.0098 10.42 22.0098 12.35C22.0098 13.37 22.2498 14.33 22.6698 15.15C14.0998 15.71 6.00977 17.97 6.00977 22.01V54.01C6.00977 58.61 16.5698 61.01 27.0098 61.01C31.9098 61.01 36.5898 60.48 40.2898 59.52C41.8598 60.48 43.5898 61.01 45.2998 61.01C45.7598 61.01 46.2198 60.96 46.6798 60.89C47.1398 60.97 47.5998 61.01 48.0598 61.01C51.0798 61.01 54.1798 59.39 56.2998 56.61C58.7798 53.34 59.3698 49.19 57.7998 46.02ZM50.3398 51.44C50.3398 54.08 49.3298 56.47 47.6698 57.97V51.17C47.6698 50.62 47.2198 50.17 46.6698 50.17C46.1198 50.17 45.6698 50.62 45.6698 51.17V57.97C44.0198 56.47 42.9998 54.08 42.9998 51.44C42.9998 48.3 44.4198 45.5 46.6698 44.14C48.9098 45.49 50.3398 48.3 50.3398 51.44ZM38.6398 55.4C36.7398 52.9 36.1698 49.81 37.1298 47.37C38.5198 47.22 40.0298 47.56 41.4298 48.32C41.1598 49.31 41.0098 50.36 41.0098 51.44C41.0098 54.3 42.0198 56.93 43.6998 58.8C41.8198 58.36 39.9998 57.17 38.6398 55.39V55.4ZM26.9798 5.01001C28.8698 8.46001 29.9998 11.2 29.9998 12.34C29.9998 14.36 28.6498 16 26.9998 16C25.3498 16 23.9998 14.36 23.9998 12.34C23.9998 11.2 25.1298 8.46001 26.9798 5.01001ZM24.2398 17.06C24.7598 17.45 25.3598 17.74 25.9898 17.89V22C25.9898 22.55 26.4398 23 26.9898 23C27.5398 23 27.9898 22.55 27.9898 22V17.89C28.6298 17.74 29.2198 17.46 29.7398 17.06C40.1998 17.5 45.9898 20.24 45.9898 22C45.9898 24.09 38.7598 27 26.9898 27C15.2198 27 7.98977 24.09 7.98977 22C7.98977 20.24 13.7798 17.5 24.2398 17.06ZM26.9898 59C15.2198 59 7.98977 56.09 7.98977 54V25.16C11.5398 27.69 19.2998 29 26.9898 29C34.6798 29 42.4398 27.69 45.9898 25.16V42.24C44.3198 43.14 42.9898 44.62 42.1198 46.44C40.2098 45.47 38.1198 45.11 36.2298 45.48C35.9198 45.54 35.6598 45.74 35.5198 46.02C33.9598 49.2 34.5498 53.35 37.0298 56.61C37.3998 57.09 37.8098 57.53 38.2298 57.94C34.9698 58.63 31.0598 59.01 26.9898 59.01V59ZM54.6998 55.39C53.3398 57.17 51.5098 58.36 49.6298 58.8C51.3098 56.93 52.3298 54.3 52.3298 51.44C52.3298 50.36 52.1798 49.31 51.9098 48.32C53.2998 47.56 54.8198 47.23 56.2098 47.37C57.1698 49.8 56.6098 52.89 54.7098 55.4L54.6998 55.39Z" fill="#00539F"/>
</svg>
