<svg width="333" height="49" viewBox="0 0 333 49" fill="none" xmlns="http://www.w3.org/2000/svg">
<rect y="0.5" width="48" height="48" rx="4" fill="#F0ECE9"/>
<path d="M16 29.5L19.5896 26.2694C20.3803 25.5578 21.5896 25.5896 22.3417 26.3417L23.5 27.5L27.0858 23.9142C27.8668 23.1332 29.1332 23.1332 29.9142 23.9142L32 26M23 21.5C23 22.0523 22.5523 22.5 22 22.5C21.4477 22.5 21 22.0523 21 21.5C21 20.9477 21.4477 20.5 22 20.5C22.5523 20.5 23 20.9477 23 21.5ZM18 32.5H30C31.1046 32.5 32 31.6046 32 30.5V18.5C32 17.3954 31.1046 16.5 30 16.5H18C16.8954 16.5 16 17.3954 16 18.5V30.5C16 31.6046 16.8954 32.5 18 32.5Z" stroke="#8E8E93" stroke-width="2" stroke-linecap="round" stroke-linejoin="round"/>
<path d="M66.5735 22.9102H64.2404C64.1978 22.6083 64.1108 22.3402 63.9794 22.1058C63.848 21.8679 63.6793 21.6655 63.4734 21.4986C63.2674 21.3317 63.0295 21.2038 62.7596 21.1151C62.4933 21.0263 62.2038 20.9819 61.8913 20.9819C61.3267 20.9819 60.8349 21.1222 60.4158 21.4027C59.9968 21.6797 59.6719 22.0845 59.4411 22.6172C59.2102 23.1463 59.0948 23.7891 59.0948 24.5455C59.0948 25.3232 59.2102 25.9766 59.4411 26.5057C59.6754 27.0348 60.0021 27.4343 60.4212 27.7042C60.8402 27.9741 61.3249 28.109 61.8754 28.109C62.1843 28.109 62.4702 28.0682 62.733 27.9865C62.9993 27.9048 63.2354 27.7859 63.4414 27.6296C63.6474 27.4698 63.8178 27.2763 63.9528 27.049C64.0913 26.8217 64.1871 26.5625 64.2404 26.2713L66.5735 26.282C66.5131 26.7827 66.3622 27.2656 66.1207 27.7308C65.8828 28.1925 65.5614 28.6062 65.1566 28.9719C64.7553 29.3342 64.2759 29.6218 63.7184 29.8349C63.1644 30.0444 62.5376 30.1491 61.8381 30.1491C60.8651 30.1491 59.995 29.929 59.228 29.4886C58.4645 29.0483 57.8608 28.4109 57.4169 27.5763C56.9766 26.7418 56.7564 25.7315 56.7564 24.5455C56.7564 23.3558 56.9801 22.3438 57.4276 21.5092C57.875 20.6747 58.4822 20.0391 59.2493 19.6023C60.0163 19.1619 60.8793 18.9418 61.8381 18.9418C62.4702 18.9418 63.0561 19.0305 63.5959 19.2081C64.1392 19.3857 64.6204 19.6449 65.0394 19.9858C65.4585 20.3232 65.7994 20.7369 66.0621 21.2269C66.3285 21.717 66.4989 22.2781 66.5735 22.9102ZM70.454 19.0909V30H68.1848V19.0909H70.454ZM72.2718 30V21.8182H74.5409V30H72.2718ZM73.4117 20.7635C73.0743 20.7635 72.7849 20.6516 72.5434 20.4279C72.3055 20.2006 72.1865 19.929 72.1865 19.6129C72.1865 19.3004 72.3055 19.0323 72.5434 18.8086C72.7849 18.5813 73.0743 18.4677 73.4117 18.4677C73.749 18.4677 74.0367 18.5813 74.2746 18.8086C74.5161 19.0323 74.6368 19.3004 74.6368 19.6129C74.6368 19.929 74.5161 20.2006 74.2746 20.4279C74.0367 20.6516 73.749 20.7635 73.4117 20.7635ZM80.0554 30.1598C79.2173 30.1598 78.4964 29.9822 77.8928 29.6271C77.2926 29.2685 76.831 28.7713 76.5078 28.1357C76.1882 27.5 76.0284 26.7685 76.0284 25.9411C76.0284 25.103 76.19 24.3679 76.5131 23.7358C76.8398 23.1001 77.3033 22.6048 77.9034 22.2496C78.5036 21.891 79.2173 21.7116 80.0447 21.7116C80.7585 21.7116 81.3835 21.8413 81.9197 22.1005C82.456 22.3597 82.8803 22.7237 83.1928 23.1925C83.5053 23.6612 83.6776 24.2116 83.7095 24.8438H81.5682C81.5078 24.4354 81.348 24.1069 81.0888 23.8583C80.8331 23.6062 80.4975 23.4801 80.082 23.4801C79.7305 23.4801 79.4233 23.576 79.1605 23.7678C78.9013 23.956 78.6989 24.2312 78.5533 24.5934C78.4077 24.9556 78.3349 25.3942 78.3349 25.9091C78.3349 26.4311 78.4059 26.875 78.5479 27.2408C78.6935 27.6065 78.8977 27.8853 79.1605 28.0771C79.4233 28.2688 79.7305 28.3647 80.082 28.3647C80.3413 28.3647 80.5739 28.3114 80.7798 28.2049C80.9893 28.0984 81.1616 27.9439 81.2965 27.7415C81.435 27.5355 81.5256 27.2887 81.5682 27.0011H83.7095C83.674 27.6261 83.5036 28.1765 83.1982 28.6523C82.8963 29.1246 82.479 29.494 81.9464 29.7603C81.4137 30.0266 80.7834 30.1598 80.0554 30.1598ZM87.2185 27.6456L87.2238 24.9237H87.5541L90.1748 21.8182H92.7796L89.2586 25.9304H88.7206L87.2185 27.6456ZM85.1624 30V19.0909H87.4316V30H85.1624ZM90.276 30L87.8683 26.4364L89.3811 24.8331L92.934 30H90.276ZM101.716 21.8182V23.5227H96.7892V21.8182H101.716ZM97.9078 19.858H100.177V27.4858C100.177 27.6953 100.209 27.8587 100.273 27.9759C100.337 28.0895 100.426 28.1694 100.539 28.2156C100.656 28.2617 100.791 28.2848 100.944 28.2848C101.051 28.2848 101.157 28.2759 101.264 28.2582C101.37 28.2369 101.452 28.2209 101.509 28.2102L101.866 29.8988C101.752 29.9343 101.592 29.9751 101.386 30.0213C101.18 30.071 100.93 30.1012 100.635 30.1119C100.088 30.1332 99.6088 30.0604 99.1969 29.8935C98.7885 29.7266 98.4707 29.4673 98.2434 29.1158C98.0162 28.7642 97.9043 28.3203 97.9078 27.7841V19.858ZM106.803 30.1598C105.976 30.1598 105.26 29.984 104.657 29.6325C104.057 29.2773 103.593 28.7837 103.267 28.1516C102.94 27.516 102.776 26.7791 102.776 25.9411C102.776 25.0959 102.94 24.3572 103.267 23.7251C103.593 23.0895 104.057 22.5959 104.657 22.2443C105.26 21.8892 105.976 21.7116 106.803 21.7116C107.631 21.7116 108.345 21.8892 108.945 22.2443C109.548 22.5959 110.014 23.0895 110.34 23.7251C110.667 24.3572 110.83 25.0959 110.83 25.9411C110.83 26.7791 110.667 27.516 110.34 28.1516C110.014 28.7837 109.548 29.2773 108.945 29.6325C108.345 29.984 107.631 30.1598 106.803 30.1598ZM106.814 28.402C107.191 28.402 107.505 28.2955 107.757 28.0824C108.009 27.8658 108.199 27.571 108.327 27.1982C108.458 26.8253 108.524 26.4009 108.524 25.9251C108.524 25.4492 108.458 25.0249 108.327 24.652C108.199 24.2791 108.009 23.9844 107.757 23.7678C107.505 23.5511 107.191 23.4428 106.814 23.4428C106.434 23.4428 106.115 23.5511 105.855 23.7678C105.6 23.9844 105.406 24.2791 105.275 24.652C105.147 25.0249 105.083 25.4492 105.083 25.9251C105.083 26.4009 105.147 26.8253 105.275 27.1982C105.406 27.571 105.6 27.8658 105.855 28.0824C106.115 28.2955 106.434 28.402 106.814 28.402ZM121.024 26.5163V21.8182H123.294V30H121.115V28.5138H121.03C120.845 28.9933 120.538 29.3786 120.108 29.6697C119.682 29.9609 119.162 30.1065 118.547 30.1065C118.001 30.1065 117.519 29.9822 117.104 29.7337C116.688 29.4851 116.364 29.1317 116.129 28.6737C115.898 28.2156 115.781 27.6669 115.778 27.0277V21.8182H118.047V26.6229C118.05 27.1058 118.18 27.4876 118.436 27.7681C118.691 28.0487 119.034 28.1889 119.464 28.1889C119.737 28.1889 119.993 28.1268 120.231 28.0025C120.469 27.8746 120.66 27.6864 120.806 27.4379C120.955 27.1893 121.028 26.8821 121.024 26.5163ZM125.109 33.0682V21.8182H127.346V23.1925H127.447C127.547 22.9723 127.69 22.7486 127.879 22.5213C128.07 22.2905 128.319 22.0987 128.624 21.946C128.933 21.7898 129.317 21.7116 129.775 21.7116C130.371 21.7116 130.922 21.8679 131.426 22.1804C131.93 22.4893 132.333 22.9563 132.635 23.5813C132.937 24.2028 133.088 24.9822 133.088 25.9197C133.088 26.8324 132.941 27.603 132.646 28.2315C132.355 28.8565 131.957 29.3306 131.453 29.6538C130.952 29.9734 130.391 30.1332 129.77 30.1332C129.329 30.1332 128.955 30.0604 128.646 29.9148C128.34 29.7692 128.09 29.5863 127.895 29.3661C127.699 29.1424 127.55 28.9169 127.447 28.6896H127.378V33.0682H125.109ZM127.33 25.9091C127.33 26.3956 127.397 26.82 127.532 27.1822C127.667 27.5444 127.863 27.8267 128.118 28.0291C128.374 28.228 128.685 28.3274 129.05 28.3274C129.42 28.3274 129.732 28.2262 129.988 28.0238C130.244 27.8178 130.437 27.5337 130.569 27.1715C130.703 26.8058 130.771 26.3849 130.771 25.9091C130.771 25.4368 130.705 25.0213 130.574 24.6626C130.442 24.304 130.249 24.0234 129.993 23.821C129.738 23.6186 129.423 23.5174 129.05 23.5174C128.681 23.5174 128.369 23.6151 128.113 23.8104C127.861 24.0057 127.667 24.2827 127.532 24.6413C127.397 25 127.33 25.4226 127.33 25.9091ZM136.87 19.0909V30H134.601V19.0909H136.87ZM142.384 30.1598C141.557 30.1598 140.842 29.984 140.238 29.6325C139.638 29.2773 139.174 28.7837 138.848 28.1516C138.521 27.516 138.358 26.7791 138.358 25.9411C138.358 25.0959 138.521 24.3572 138.848 23.7251C139.174 23.0895 139.638 22.5959 140.238 22.2443C140.842 21.8892 141.557 21.7116 142.384 21.7116C143.212 21.7116 143.926 21.8892 144.526 22.2443C145.13 22.5959 145.595 23.0895 145.921 23.7251C146.248 24.3572 146.411 25.0959 146.411 25.9411C146.411 26.7791 146.248 27.516 145.921 28.1516C145.595 28.7837 145.13 29.2773 144.526 29.6325C143.926 29.984 143.212 30.1598 142.384 30.1598ZM142.395 28.402C142.772 28.402 143.086 28.2955 143.338 28.0824C143.59 27.8658 143.78 27.571 143.908 27.1982C144.039 26.8253 144.105 26.4009 144.105 25.9251C144.105 25.4492 144.039 25.0249 143.908 24.652C143.78 24.2791 143.59 23.9844 143.338 23.7678C143.086 23.5511 142.772 23.4428 142.395 23.4428C142.015 23.4428 141.696 23.5511 141.436 23.7678C141.181 23.9844 140.987 24.2791 140.856 24.652C140.728 25.0249 140.664 25.4492 140.664 25.9251C140.664 26.4009 140.728 26.8253 140.856 27.1982C140.987 27.571 141.181 27.8658 141.436 28.0824C141.696 28.2955 142.015 28.402 142.395 28.402ZM150.22 30.1545C149.698 30.1545 149.233 30.0639 148.824 29.8828C148.416 29.6982 148.093 29.4265 147.855 29.0678C147.621 28.7056 147.503 28.2546 147.503 27.7148C147.503 27.2603 147.587 26.8786 147.754 26.5696C147.921 26.2607 148.148 26.0121 148.436 25.8239C148.723 25.6357 149.05 25.4936 149.416 25.3977C149.785 25.3018 150.172 25.2344 150.577 25.1953C151.053 25.1456 151.436 25.0994 151.728 25.0568C152.019 25.0107 152.23 24.9432 152.361 24.8544C152.493 24.7656 152.559 24.6342 152.559 24.4602V24.4283C152.559 24.0909 152.452 23.8299 152.239 23.6452C152.029 23.4606 151.731 23.3683 151.344 23.3683C150.936 23.3683 150.611 23.4588 150.369 23.6399C150.128 23.8175 149.968 24.0412 149.89 24.3111L147.791 24.1406C147.898 23.6435 148.107 23.2138 148.42 22.8516C148.732 22.4858 149.135 22.2053 149.629 22.0099C150.126 21.8111 150.701 21.7116 151.355 21.7116C151.809 21.7116 152.244 21.7649 152.66 21.8714C153.079 21.978 153.45 22.1431 153.773 22.3668C154.1 22.5906 154.357 22.8782 154.545 23.2298C154.734 23.5778 154.828 23.995 154.828 24.4815V30H152.676V28.8654H152.612C152.48 29.1211 152.305 29.3466 152.084 29.5419C151.864 29.7337 151.6 29.8846 151.291 29.9947C150.982 30.1012 150.625 30.1545 150.22 30.1545ZM150.87 28.5884C151.204 28.5884 151.498 28.5227 151.754 28.3913C152.01 28.2564 152.21 28.0753 152.356 27.848C152.502 27.6207 152.574 27.3633 152.574 27.0756V26.2074C152.503 26.2536 152.406 26.2962 152.282 26.3352C152.161 26.3707 152.024 26.4045 151.871 26.4364C151.719 26.4648 151.566 26.4915 151.413 26.5163C151.261 26.5376 151.122 26.5572 150.998 26.5749C150.731 26.614 150.499 26.6761 150.3 26.7614C150.101 26.8466 149.947 26.962 149.837 27.1076C149.726 27.2496 149.671 27.4272 149.671 27.6403C149.671 27.9492 149.783 28.1854 150.007 28.3487C150.234 28.5085 150.522 28.5884 150.87 28.5884ZM159.603 30.1332C158.982 30.1332 158.419 29.9734 157.915 29.6538C157.414 29.3306 157.016 28.8565 156.721 28.2315C156.43 27.603 156.285 26.8324 156.285 25.9197C156.285 24.9822 156.435 24.2028 156.737 23.5813C157.039 22.9563 157.44 22.4893 157.941 22.1804C158.445 21.8679 158.998 21.7116 159.598 21.7116C160.056 21.7116 160.438 21.7898 160.743 21.946C161.052 22.0987 161.301 22.2905 161.489 22.5213C161.68 22.7486 161.826 22.9723 161.926 23.1925H161.995V19.0909H164.259V30H162.021V28.6896H161.926C161.819 28.9169 161.668 29.1424 161.473 29.3661C161.281 29.5863 161.031 29.7692 160.722 29.9148C160.416 30.0604 160.043 30.1332 159.603 30.1332ZM160.322 28.3274C160.688 28.3274 160.997 28.228 161.249 28.0291C161.505 27.8267 161.7 27.5444 161.835 27.1822C161.973 26.82 162.043 26.3956 162.043 25.9091C162.043 25.4226 161.975 25 161.84 24.6413C161.705 24.2827 161.51 24.0057 161.254 23.8104C160.999 23.6151 160.688 23.5174 160.322 23.5174C159.949 23.5174 159.635 23.6186 159.379 23.821C159.124 24.0234 158.93 24.304 158.799 24.6626C158.667 25.0213 158.602 25.4368 158.602 25.9091C158.602 26.3849 158.667 26.8058 158.799 27.1715C158.934 27.5337 159.127 27.8178 159.379 28.0238C159.635 28.2262 159.949 28.3274 160.322 28.3274ZM173.912 30.1705C173.173 30.1705 172.525 29.9947 171.968 29.6431C171.414 29.2915 170.98 28.7997 170.668 28.1676C170.359 27.5355 170.205 26.7969 170.205 25.9517C170.205 25.0994 170.359 24.3555 170.668 23.7198C170.98 23.0842 171.414 22.5906 171.968 22.239C172.525 21.8874 173.173 21.7116 173.912 21.7116C174.651 21.7116 175.297 21.8874 175.851 22.239C176.408 22.5906 176.842 23.0842 177.151 23.7198C177.463 24.3555 177.619 25.0994 177.619 25.9517C177.619 26.7969 177.463 27.5355 177.151 28.1676C176.842 28.7997 176.408 29.2915 175.851 29.6431C175.297 29.9947 174.651 30.1705 173.912 30.1705ZM173.912 29.0412C174.473 29.0412 174.935 28.8974 175.297 28.6097C175.659 28.3221 175.927 27.9439 176.101 27.4751C176.275 27.0064 176.362 26.4986 176.362 25.9517C176.362 25.4048 176.275 24.8952 176.101 24.4229C175.927 23.9506 175.659 23.5689 175.297 23.2777C174.935 22.9865 174.473 22.8409 173.912 22.8409C173.351 22.8409 172.889 22.9865 172.527 23.2777C172.165 23.5689 171.897 23.9506 171.723 24.4229C171.549 24.8952 171.462 25.4048 171.462 25.9517C171.462 26.4986 171.549 27.0064 171.723 27.4751C171.897 27.9439 172.165 28.3221 172.527 28.6097C172.889 28.8974 173.351 29.0412 173.912 29.0412ZM179.538 30V21.8182H180.753V23.054H180.838C180.987 22.6491 181.257 22.3207 181.648 22.0685C182.038 21.8164 182.479 21.6903 182.969 21.6903C183.061 21.6903 183.176 21.6921 183.315 21.6957C183.453 21.6992 183.558 21.7045 183.629 21.7116V22.9901C183.587 22.9794 183.489 22.9634 183.336 22.9421C183.187 22.9173 183.029 22.9048 182.862 22.9048C182.464 22.9048 182.109 22.9883 181.797 23.1552C181.488 23.3185 181.243 23.5458 181.062 23.837C180.884 24.1246 180.795 24.4531 180.795 24.8224V30H179.538ZM192.428 30.1705C191.746 30.1705 191.144 29.9982 190.622 29.6538C190.1 29.3058 189.691 28.8157 189.397 28.1836C189.102 27.5479 188.955 26.7969 188.955 25.9304C188.955 25.071 189.102 24.3253 189.397 23.6932C189.691 23.0611 190.102 22.5728 190.627 22.2283C191.153 21.8839 191.76 21.7116 192.449 21.7116C192.982 21.7116 193.402 21.8004 193.711 21.978C194.024 22.152 194.262 22.3509 194.425 22.5746C194.592 22.7947 194.722 22.9759 194.814 23.1179H194.92V19.0909H196.178V30H194.963V28.7429H194.814C194.722 28.892 194.59 29.0803 194.42 29.3075C194.249 29.5312 194.006 29.7319 193.69 29.9094C193.374 30.0835 192.953 30.1705 192.428 30.1705ZM192.598 29.0412C193.102 29.0412 193.528 28.9098 193.876 28.647C194.224 28.3807 194.489 28.0131 194.67 27.5444C194.851 27.0721 194.942 26.527 194.942 25.9091C194.942 25.2983 194.853 24.7638 194.675 24.3058C194.498 23.8441 194.235 23.4854 193.887 23.2298C193.539 22.9705 193.109 22.8409 192.598 22.8409C192.065 22.8409 191.621 22.9776 191.266 23.2511C190.915 23.521 190.65 23.8885 190.473 24.3537C190.299 24.8153 190.212 25.3338 190.212 25.9091C190.212 26.4915 190.3 27.0206 190.478 27.4964C190.659 27.9687 190.925 28.3452 191.277 28.6257C191.632 28.9027 192.072 29.0412 192.598 29.0412ZM198.654 30V21.8182H199.869V23.054H199.954C200.103 22.6491 200.373 22.3207 200.764 22.0685C201.154 21.8164 201.595 21.6903 202.085 21.6903C202.177 21.6903 202.293 21.6921 202.431 21.6957C202.57 21.6992 202.674 21.7045 202.745 21.7116V22.9901C202.703 22.9794 202.605 22.9634 202.452 22.9421C202.303 22.9173 202.145 22.9048 201.978 22.9048C201.581 22.9048 201.225 22.9883 200.913 23.1552C200.604 23.3185 200.359 23.5458 200.178 23.837C200 24.1246 199.912 24.4531 199.912 24.8224V30H198.654ZM206.643 30.1918C206.125 30.1918 205.654 30.0941 205.232 29.8988C204.809 29.6999 204.473 29.4141 204.225 29.0412C203.976 28.6648 203.852 28.2102 203.852 27.6776C203.852 27.2088 203.944 26.8288 204.129 26.5376C204.314 26.2429 204.56 26.0121 204.869 25.8452C205.178 25.6783 205.519 25.554 205.892 25.4723C206.269 25.3871 206.647 25.3196 207.027 25.2699C207.524 25.206 207.927 25.158 208.236 25.1261C208.548 25.0906 208.776 25.032 208.918 24.9503C209.063 24.8686 209.136 24.7266 209.136 24.5241V24.4815C209.136 23.956 208.992 23.5476 208.705 23.2564C208.421 22.9652 207.989 22.8196 207.41 22.8196C206.81 22.8196 206.34 22.951 205.999 23.2138C205.658 23.4766 205.418 23.7571 205.28 24.0554L204.086 23.6293C204.299 23.1321 204.584 22.745 204.939 22.468C205.297 22.1875 205.688 21.9922 206.111 21.8821C206.537 21.7685 206.956 21.7116 207.368 21.7116C207.63 21.7116 207.932 21.7436 208.273 21.8075C208.618 21.8679 208.95 21.994 209.269 22.1857C209.592 22.3775 209.861 22.6669 210.074 23.054C210.287 23.4411 210.393 23.9595 210.393 24.6094V30H209.136V28.892H209.072C208.987 29.0696 208.845 29.2596 208.646 29.462C208.447 29.6644 208.183 29.8366 207.852 29.9787C207.522 30.1207 207.119 30.1918 206.643 30.1918ZM206.835 29.0625C207.332 29.0625 207.751 28.9648 208.092 28.7695C208.437 28.5742 208.696 28.3221 208.87 28.0131C209.047 27.7042 209.136 27.3793 209.136 27.0384V25.8878C209.083 25.9517 208.966 26.0103 208.785 26.0636C208.607 26.1133 208.401 26.1577 208.167 26.1967C207.936 26.2322 207.71 26.2642 207.49 26.2926C207.274 26.3175 207.098 26.3388 206.963 26.3565C206.636 26.3991 206.331 26.4684 206.047 26.5643C205.766 26.6566 205.539 26.7969 205.365 26.9851C205.194 27.1697 205.109 27.4219 205.109 27.7415C205.109 28.1783 205.271 28.5085 205.594 28.7322C205.921 28.9524 206.334 29.0625 206.835 29.0625ZM215.99 33.2386C215.383 33.2386 214.861 33.1605 214.424 33.0043C213.987 32.8516 213.623 32.6491 213.332 32.397C213.045 32.1484 212.816 31.8821 212.645 31.598L213.646 30.8949C213.76 31.044 213.904 31.2145 214.078 31.4062C214.252 31.6016 214.49 31.7702 214.792 31.9123C215.097 32.0579 215.497 32.1307 215.99 32.1307C216.651 32.1307 217.196 31.9709 217.626 31.6513C218.055 31.3317 218.27 30.831 218.27 30.1491V28.4872H218.164C218.071 28.6364 217.94 28.821 217.769 29.0412C217.602 29.2578 217.361 29.4513 217.045 29.6218C216.732 29.7887 216.31 29.8722 215.777 29.8722C215.117 29.8722 214.524 29.7159 213.998 29.4034C213.476 29.0909 213.062 28.6364 212.757 28.0398C212.455 27.4432 212.304 26.7187 212.304 25.8665C212.304 25.0284 212.452 24.2987 212.746 23.6772C213.041 23.0522 213.451 22.5692 213.977 22.2283C214.502 21.8839 215.11 21.7116 215.798 21.7116C216.331 21.7116 216.754 21.8004 217.066 21.978C217.382 22.152 217.624 22.3509 217.791 22.5746C217.961 22.7947 218.093 22.9759 218.185 23.1179H218.313V21.8182H219.527V30.2344C219.527 30.9375 219.367 31.5092 219.048 31.9496C218.732 32.3935 218.306 32.7184 217.769 32.9244C217.237 33.1339 216.644 33.2386 215.99 33.2386ZM215.948 28.7429C216.452 28.7429 216.878 28.6275 217.226 28.3967C217.574 28.1658 217.839 27.8338 218.02 27.4006C218.201 26.9673 218.291 26.4489 218.291 25.8452C218.291 25.2557 218.203 24.7354 218.025 24.2844C217.847 23.8335 217.585 23.4801 217.237 23.2244C216.889 22.9687 216.459 22.8409 215.948 22.8409C215.415 22.8409 214.971 22.9759 214.616 23.2457C214.264 23.5156 214 23.8778 213.822 24.3324C213.648 24.7869 213.561 25.2912 213.561 25.8452C213.561 26.4134 213.65 26.9158 213.828 27.3526C214.009 27.7859 214.275 28.1268 214.627 28.3754C214.982 28.6204 215.422 28.7429 215.948 28.7429ZM229.137 30.1491C228.419 30.1491 227.801 30.0178 227.283 29.755C226.764 29.4922 226.365 29.1317 226.084 28.6737C225.804 28.2156 225.664 27.6918 225.664 27.1023C225.664 26.6477 225.759 26.2447 225.951 25.8931C226.146 25.538 226.415 25.2095 226.756 24.9077C227.1 24.6023 227.496 24.2969 227.943 23.9915L229.52 22.8196C229.829 22.6172 230.076 22.4006 230.26 22.1697C230.449 21.9389 230.543 21.6371 230.543 21.2642C230.543 20.9872 230.42 20.7191 230.175 20.4599C229.934 20.2006 229.616 20.071 229.222 20.071C228.945 20.071 228.7 20.142 228.487 20.2841C228.277 20.4226 228.112 20.6001 227.991 20.8168C227.874 21.0298 227.816 21.25 227.816 21.4773C227.816 21.733 227.885 21.9922 228.023 22.255C228.165 22.5142 228.345 22.7805 228.561 23.054C228.781 23.3239 229.009 23.6009 229.243 23.8849L234.25 30H232.737L228.604 25.0142C228.22 24.5526 227.872 24.1335 227.56 23.7571C227.247 23.3807 226.999 23.0096 226.814 22.6438C226.629 22.2781 226.537 21.8821 226.537 21.456C226.537 20.9659 226.645 20.5362 226.862 20.1669C227.082 19.794 227.389 19.5046 227.784 19.2987C228.181 19.0891 228.646 18.9844 229.179 18.9844C229.726 18.9844 230.197 19.0909 230.591 19.304C230.985 19.5135 231.289 19.7923 231.502 20.1403C231.715 20.4847 231.821 20.8594 231.821 21.2642C231.821 21.7862 231.692 22.239 231.432 22.6225C231.173 23.006 230.82 23.3629 230.372 23.6932L228.199 25.3125C227.709 25.6747 227.377 26.0263 227.203 26.3672C227.029 26.7081 226.942 26.9531 226.942 27.1023C226.942 27.4432 227.031 27.761 227.208 28.0558C227.386 28.3505 227.636 28.5884 227.959 28.7695C228.282 28.9506 228.661 29.0412 229.094 29.0412C229.506 29.0412 229.907 28.9542 230.298 28.7802C230.688 28.6026 231.042 28.3469 231.358 28.0131C231.677 27.6793 231.93 27.2781 232.114 26.8093C232.302 26.3406 232.396 25.8132 232.396 25.2273H233.611C233.611 25.9517 233.528 26.543 233.361 27.0011C233.194 27.4592 233.006 27.8178 232.796 28.0771C232.586 28.3363 232.418 28.5298 232.29 28.6577C232.247 28.7109 232.208 28.7642 232.173 28.8175C232.137 28.8707 232.098 28.924 232.056 28.9773C231.704 29.3714 231.26 29.6662 230.724 29.8615C230.188 30.0533 229.659 30.1491 229.137 30.1491ZM242.95 30.1705C242.268 30.1705 241.666 29.9982 241.144 29.6538C240.622 29.3058 240.214 28.8157 239.919 28.1836C239.624 27.5479 239.477 26.7969 239.477 25.9304C239.477 25.071 239.624 24.3253 239.919 23.6932C240.214 23.0611 240.624 22.5728 241.15 22.2283C241.675 21.8839 242.282 21.7116 242.971 21.7116C243.504 21.7116 243.925 21.8004 244.234 21.978C244.546 22.152 244.784 22.3509 244.948 22.5746C245.114 22.7947 245.244 22.9759 245.336 23.1179H245.443V19.0909H246.7V30H245.486V28.7429H245.336C245.244 28.892 245.113 29.0803 244.942 29.3075C244.772 29.5312 244.528 29.7319 244.212 29.9094C243.896 30.0835 243.476 30.1705 242.95 30.1705ZM243.12 29.0412C243.625 29.0412 244.051 28.9098 244.399 28.647C244.747 28.3807 245.011 28.0131 245.193 27.5444C245.374 27.0721 245.464 26.527 245.464 25.9091C245.464 25.2983 245.375 24.7638 245.198 24.3058C245.02 23.8441 244.758 23.4854 244.41 23.2298C244.062 22.9705 243.632 22.8409 243.12 22.8409C242.588 22.8409 242.144 22.9776 241.789 23.2511C241.437 23.521 241.173 23.8885 240.995 24.3537C240.821 24.8153 240.734 25.3338 240.734 25.9091C240.734 26.4915 240.823 27.0206 241 27.4964C241.182 27.9687 241.448 28.3452 241.799 28.6257C242.155 28.9027 242.595 29.0412 243.12 29.0412ZM249.177 30V21.8182H250.391V23.054H250.477C250.626 22.6491 250.896 22.3207 251.286 22.0685C251.677 21.8164 252.117 21.6903 252.607 21.6903C252.7 21.6903 252.815 21.6921 252.954 21.6957C253.092 21.6992 253.197 21.7045 253.268 21.7116V22.9901C253.225 22.9794 253.128 22.9634 252.975 22.9421C252.826 22.9173 252.668 22.9048 252.501 22.9048C252.103 22.9048 251.748 22.9883 251.435 23.1552C251.127 23.3185 250.881 23.5458 250.7 23.837C250.523 24.1246 250.434 24.4531 250.434 24.8224V30H249.177ZM257.833 30.1705C257.094 30.1705 256.446 29.9947 255.889 29.6431C255.335 29.2915 254.901 28.7997 254.589 28.1676C254.28 27.5355 254.125 26.7969 254.125 25.9517C254.125 25.0994 254.28 24.3555 254.589 23.7198C254.901 23.0842 255.335 22.5906 255.889 22.239C256.446 21.8874 257.094 21.7116 257.833 21.7116C258.571 21.7116 259.218 21.8874 259.772 22.239C260.329 22.5906 260.763 23.0842 261.071 23.7198C261.384 24.3555 261.54 25.0994 261.54 25.9517C261.54 26.7969 261.384 27.5355 261.071 28.1676C260.763 28.7997 260.329 29.2915 259.772 29.6431C259.218 29.9947 258.571 30.1705 257.833 30.1705ZM257.833 29.0412C258.394 29.0412 258.856 28.8974 259.218 28.6097C259.58 28.3221 259.848 27.9439 260.022 27.4751C260.196 27.0064 260.283 26.4986 260.283 25.9517C260.283 25.4048 260.196 24.8952 260.022 24.4229C259.848 23.9506 259.58 23.5689 259.218 23.2777C258.856 22.9865 258.394 22.8409 257.833 22.8409C257.272 22.8409 256.81 22.9865 256.448 23.2777C256.086 23.5689 255.818 23.9506 255.644 24.4229C255.47 24.8952 255.383 25.4048 255.383 25.9517C255.383 26.4986 255.47 27.0064 255.644 27.4751C255.818 27.9439 256.086 28.3221 256.448 28.6097C256.81 28.8974 257.272 29.0412 257.833 29.0412ZM263.459 33.0682V21.8182H264.674V23.1179H264.823C264.915 22.9759 265.043 22.7947 265.206 22.5746C265.373 22.3509 265.611 22.152 265.92 21.978C266.233 21.8004 266.655 21.7116 267.188 21.7116C267.877 21.7116 268.484 21.8839 269.01 22.2283C269.535 22.5728 269.945 23.0611 270.24 23.6932C270.535 24.3253 270.682 25.071 270.682 25.9304C270.682 26.7969 270.535 27.5479 270.24 28.1836C269.945 28.8157 269.537 29.3058 269.015 29.6538C268.493 29.9982 267.891 30.1705 267.209 30.1705C266.684 30.1705 266.263 30.0835 265.947 29.9094C265.631 29.7319 265.387 29.5312 265.217 29.3075C265.047 29.0803 264.915 28.892 264.823 28.7429H264.716V33.0682H263.459ZM264.695 25.9091C264.695 26.527 264.786 27.0721 264.967 27.5444C265.148 28.0131 265.412 28.3807 265.76 28.647C266.108 28.9098 266.534 29.0412 267.039 29.0412C267.564 29.0412 268.003 28.9027 268.354 28.6257C268.71 28.3452 268.976 27.9687 269.153 27.4964C269.335 27.0206 269.425 26.4915 269.425 25.9091C269.425 25.3338 269.336 24.8153 269.159 24.3537C268.985 23.8885 268.72 23.521 268.365 23.2511C268.013 22.9776 267.571 22.8409 267.039 22.8409C266.527 22.8409 266.098 22.9705 265.75 23.2298C265.402 23.4854 265.139 23.8441 264.961 24.3058C264.784 24.7638 264.695 25.2983 264.695 25.9091ZM280.462 21.8182V22.8835H276.051V21.8182H280.462ZM277.373 30V20.6889C277.373 20.2202 277.483 19.8295 277.703 19.517C277.923 19.2045 278.209 18.9702 278.56 18.8139C278.912 18.6577 279.283 18.5795 279.674 18.5795C279.983 18.5795 280.235 18.6044 280.43 18.6541C280.625 18.7038 280.771 18.75 280.867 18.7926L280.505 19.8793C280.441 19.858 280.352 19.8313 280.238 19.7994C280.128 19.7674 279.983 19.7514 279.801 19.7514C279.386 19.7514 279.086 19.8562 278.901 20.0657C278.72 20.2752 278.63 20.5824 278.63 20.9872V30H277.373ZM282.224 30V21.8182H283.481V30H282.224ZM282.863 20.4545C282.618 20.4545 282.407 20.3711 282.229 20.2042C282.055 20.0373 281.968 19.8366 281.968 19.6023C281.968 19.3679 282.055 19.1673 282.229 19.0004C282.407 18.8335 282.618 18.75 282.863 18.75C283.108 18.75 283.318 18.8335 283.492 19.0004C283.669 19.1673 283.758 19.3679 283.758 19.6023C283.758 19.8366 283.669 20.0373 283.492 20.2042C283.318 20.3711 283.108 20.4545 282.863 20.4545ZM287.04 19.0909V30H285.783V19.0909H287.04ZM292.773 30.1705C291.985 30.1705 291.305 29.9964 290.733 29.6484C290.165 29.2969 289.726 28.8068 289.418 28.1783C289.112 27.5462 288.959 26.8111 288.959 25.973C288.959 25.1349 289.112 24.3963 289.418 23.7571C289.726 23.1143 290.156 22.6136 290.707 22.255C291.261 21.8928 291.907 21.7116 292.646 21.7116C293.072 21.7116 293.492 21.7827 293.908 21.9247C294.323 22.0668 294.702 22.2976 295.043 22.6172C295.383 22.9332 295.655 23.3523 295.858 23.8743C296.06 24.3963 296.161 25.0391 296.161 25.8026V26.3352H289.854V25.2486H294.883C294.883 24.7869 294.79 24.375 294.606 24.0128C294.425 23.6506 294.165 23.3647 293.828 23.1552C293.494 22.9457 293.1 22.8409 292.646 22.8409C292.145 22.8409 291.712 22.9652 291.346 23.2138C290.984 23.4588 290.705 23.7784 290.509 24.1726C290.314 24.5668 290.217 24.9893 290.217 25.4403V26.1648C290.217 26.7827 290.323 27.3065 290.536 27.7362C290.753 28.1623 291.053 28.4872 291.436 28.7109C291.82 28.9311 292.266 29.0412 292.773 29.0412C293.104 29.0412 293.402 28.995 293.668 28.9027C293.938 28.8068 294.171 28.6648 294.366 28.4766C294.561 28.2848 294.712 28.0469 294.819 27.7628L296.033 28.1037C295.905 28.5156 295.691 28.8778 295.389 29.1903C295.087 29.4993 294.714 29.7408 294.27 29.9148C293.826 30.0852 293.327 30.1705 292.773 30.1705ZM303.549 25.0781V30H302.292V19.0909H303.549V23.0966H303.656C303.848 22.674 304.135 22.3384 304.519 22.0898C304.906 21.8377 305.421 21.7116 306.063 21.7116C306.621 21.7116 307.109 21.8235 307.528 22.0472C307.947 22.2674 308.272 22.6065 308.503 23.0646C308.737 23.5192 308.855 24.098 308.855 24.8011V30H307.598V24.8864C307.598 24.2365 307.429 23.734 307.092 23.3789C306.758 23.0202 306.294 22.8409 305.701 22.8409C305.289 22.8409 304.92 22.9279 304.593 23.1019C304.27 23.2759 304.014 23.5298 303.826 23.8636C303.642 24.1974 303.549 24.6023 303.549 25.0781ZM314.585 30.1705C313.797 30.1705 313.116 29.9964 312.545 29.6484C311.977 29.2969 311.538 28.8068 311.229 28.1783C310.924 27.5462 310.771 26.8111 310.771 25.973C310.771 25.1349 310.924 24.3963 311.229 23.7571C311.538 23.1143 311.968 22.6136 312.518 22.255C313.072 21.8928 313.718 21.7116 314.457 21.7116C314.883 21.7116 315.304 21.7827 315.719 21.9247C316.135 22.0668 316.513 22.2976 316.854 22.6172C317.195 22.9332 317.467 23.3523 317.669 23.8743C317.871 24.3963 317.973 25.0391 317.973 25.8026V26.3352H311.666V25.2486H316.694C316.694 24.7869 316.602 24.375 316.417 24.0128C316.236 23.6506 315.977 23.3647 315.64 23.1552C315.306 22.9457 314.912 22.8409 314.457 22.8409C313.956 22.8409 313.523 22.9652 313.157 23.2138C312.795 23.4588 312.516 23.7784 312.321 24.1726C312.126 24.5668 312.028 24.9893 312.028 25.4403V26.1648C312.028 26.7827 312.135 27.3065 312.348 27.7362C312.564 28.1623 312.864 28.4872 313.248 28.7109C313.631 28.9311 314.077 29.0412 314.585 29.0412C314.915 29.0412 315.213 28.995 315.48 28.9027C315.75 28.8068 315.982 28.6648 316.178 28.4766C316.373 28.2848 316.524 28.0469 316.63 27.7628L317.845 28.1037C317.717 28.5156 317.502 28.8778 317.2 29.1903C316.898 29.4993 316.526 29.7408 316.082 29.9148C315.638 30.0852 315.139 30.1705 314.585 30.1705ZM319.885 30V21.8182H321.099V23.054H321.185C321.334 22.6491 321.604 22.3207 321.994 22.0685C322.385 21.8164 322.825 21.6903 323.315 21.6903C323.408 21.6903 323.523 21.6921 323.662 21.6957C323.8 21.6992 323.905 21.7045 323.976 21.7116V22.9901C323.933 22.9794 323.836 22.9634 323.683 22.9421C323.534 22.9173 323.376 22.9048 323.209 22.9048C322.811 22.9048 322.456 22.9883 322.143 23.1552C321.835 23.3185 321.589 23.5458 321.408 23.837C321.231 24.1246 321.142 24.4531 321.142 24.8224V30H319.885ZM328.647 30.1705C327.859 30.1705 327.179 29.9964 326.607 29.6484C326.039 29.2969 325.6 28.8068 325.292 28.1783C324.986 27.5462 324.833 26.8111 324.833 25.973C324.833 25.1349 324.986 24.3963 325.292 23.7571C325.6 23.1143 326.03 22.6136 326.581 22.255C327.135 21.8928 327.781 21.7116 328.52 21.7116C328.946 21.7116 329.366 21.7827 329.782 21.9247C330.197 22.0668 330.576 22.2976 330.917 22.6172C331.257 22.9332 331.529 23.3523 331.732 23.8743C331.934 24.3963 332.035 25.0391 332.035 25.8026V26.3352H325.728V25.2486H330.757C330.757 24.7869 330.664 24.375 330.48 24.0128C330.299 23.6506 330.039 23.3647 329.702 23.1552C329.368 22.9457 328.974 22.8409 328.52 22.8409C328.019 22.8409 327.586 22.9652 327.22 23.2138C326.858 23.4588 326.579 23.7784 326.384 24.1726C326.188 24.5668 326.091 24.9893 326.091 25.4403V26.1648C326.091 26.7827 326.197 27.3065 326.41 27.7362C326.627 28.1623 326.927 28.4872 327.31 28.7109C327.694 28.9311 328.14 29.0412 328.647 29.0412C328.978 29.0412 329.276 28.995 329.542 28.9027C329.812 28.8068 330.045 28.6648 330.24 28.4766C330.435 28.2848 330.586 28.0469 330.693 27.7628L331.907 28.1037C331.779 28.5156 331.565 28.8778 331.263 29.1903C330.961 29.4993 330.588 29.7408 330.144 29.9148C329.7 30.0852 329.201 30.1705 328.647 30.1705Z" fill="#8E8E93"/>
</svg>
