<svg width="80" height="62" viewBox="0 0 80 62" fill="none" xmlns="http://www.w3.org/2000/svg">
<path d="M66.6344 0.921875C59.2656 0.921875 53.2688 6.91875 53.2688 14.2891C53.2688 18.5406 55.2641 22.3359 58.3656 24.7859L44.3547 35.0594C44.1125 35.2375 43.9141 35.3891 43.7484 35.5172C43.7109 35.5469 43.6719 35.5766 43.6328 35.6063C43.5953 35.5766 43.5562 35.5469 43.5187 35.5188C43.3531 35.3906 43.1562 35.2375 42.9141 35.0609L15.8394 15.2056V14.5333C15.8394 12.9614 17.1178 11.6827 18.6891 11.6827H49.6267C50.2741 11.6827 50.7986 11.158 50.7986 10.5108C50.7986 9.86359 50.2741 9.33891 49.6267 9.33891H18.6891C15.8253 9.33891 13.4956 11.6691 13.4956 14.5333V17.9111H10.9736C8.14891 17.9111 5.85094 20.2116 5.85094 23.0391V28.1225H1.26937C0.622187 28.1225 0.0975 28.6472 0.0975 29.2944C0.0975 29.9416 0.622187 30.4662 1.26937 30.4662H5.85094V38.1211H1.17188C0.524687 38.1211 0 38.6458 0 39.293C0 39.9402 0.524687 40.4648 1.17188 40.4648H5.85094V49.5064H1.17188C0.524687 49.5064 0 50.0311 0 50.6783C0 51.3255 0.524687 51.8502 1.17188 51.8502H5.85094V55.95C5.85094 58.7775 8.14906 61.078 10.9736 61.078H25.727C26.3742 61.078 26.8989 60.5533 26.8989 59.9061C26.8989 59.2589 26.3742 58.7342 25.727 58.7342H11.2527L20.8461 52.5413H56.5453L66.0486 58.6738C65.8631 58.713 65.6711 58.7344 65.4742 58.7344H31.1395C30.4923 58.7344 29.9677 59.2591 29.9677 59.9062C29.9677 60.5534 30.4923 61.0781 31.1395 61.0781H65.4742C68.2989 61.0781 70.5969 58.7777 70.5969 55.9502V52.4014C72.8892 51.8602 74.6008 49.7983 74.6008 47.3427V25.0167C77.8752 22.5778 80 18.6773 80 14.2891C80 6.91875 74.0047 0.921875 66.6344 0.921875ZM15.8394 18.113L20.8844 21.8141L35.5353 32.5562L15.8394 45.2739V18.113ZM8.19469 23.0392C8.19469 21.5041 9.44141 20.255 10.9736 20.255H13.4956V38.1212H8.19469V23.0392ZM8.72344 57.5773C8.39234 57.1191 8.19469 56.558 8.19469 55.9502V40.465H13.4956V47.3427C13.4956 49.6087 14.952 51.5395 16.9766 52.2497L8.72344 57.5773ZM68.2531 55.9502C68.2531 56.3739 68.1553 56.7744 67.9855 57.1344L60.8678 52.5414H68.2531V55.9502ZM69.403 50.1977H18.6891C17.3478 50.1977 16.2228 49.2633 15.9214 48.0108L37.5584 34.0398L41.5281 36.9516C41.7516 37.1141 41.9344 37.2563 42.0875 37.3734C42.7156 37.8594 43.1734 38.1016 43.6328 38.1016C44.0906 38.1016 44.55 37.8594 45.1781 37.375C45.3313 37.2562 45.5141 37.1156 45.7406 36.9516L50.1562 33.7114L72.1933 47.9397C71.918 49.2281 70.7719 50.1977 69.403 50.1977ZM72.257 45.1909L52.1794 32.2277L60.4719 26.1484C62.3172 27.1125 64.4125 27.6578 66.6344 27.6578C68.6423 27.6578 70.5467 27.2098 72.257 26.4131V45.1909ZM66.6344 25.3141C65.225 25.3141 63.8766 25.0484 62.6359 24.5625C61.8203 24.2453 61.0516 23.8312 60.3438 23.3359C57.4859 21.3422 55.6125 18.0312 55.6125 14.2891C55.6125 8.21094 60.5578 3.26562 66.6344 3.26562C72.7125 3.26562 77.6562 8.21094 77.6562 14.2891C77.6562 20.3687 72.7125 25.3141 66.6344 25.3141Z" fill="#EE7700"/>
<path d="M71.9206 9.88784C71.4291 9.46596 70.6895 9.52237 70.2681 10.0131L64.9973 16.1483L62.8741 14.3338C62.3818 13.9133 61.6423 13.9713 61.222 14.4633C60.8015 14.9553 60.8595 15.695 61.3513 16.1155L64.3631 18.6894C64.5838 18.8781 64.8546 18.9703 65.1238 18.9703C65.4537 18.9703 65.7816 18.8319 66.0132 18.5621L72.0456 11.5403C72.4674 11.0494 72.4115 10.3096 71.9206 9.88784Z" fill="#EE7700"/>
</svg>
