<svg width="174" height="47" viewBox="0 0 174 47" fill="none" xmlns="http://www.w3.org/2000/svg">
<g clip-path="url(#clip0_888_112)">
<path d="M122.05 25.3024H122.511C123.687 25.3024 124.199 24.9014 124.199 23.3715V11.8863C124.199 10.3564 123.687 9.95538 122.511 9.95538H122.05V9.24927C122.946 9.27106 124.174 9.31901 125.324 9.31901C126.474 9.31901 127.525 9.27106 128.727 9.24927V9.95538H128.137C126.961 9.95538 126.448 10.3564 126.448 11.8863V22.831C126.448 24.5963 126.858 25.2065 130.007 25.2065C134.203 25.2065 134.69 24.5222 135.151 21.8416H135.943L135.788 26.0085C133.535 25.9867 130.644 25.9388 128.391 25.9388C125.397 25.9388 122.942 25.9867 122.045 26.0085V25.3024H122.05Z" fill="white"/>
<path d="M137.839 25.3024H138.3C139.476 25.3024 139.989 24.9014 139.989 23.3715V11.8863C139.989 10.3564 139.476 9.95538 138.3 9.95538H137.839V9.24927C138.735 9.27106 139.963 9.31901 141.113 9.31901C142.263 9.31901 143.315 9.27106 144.387 9.24927V9.95538H143.926C142.75 9.95538 142.237 10.3564 142.237 11.8863V23.3715C142.237 24.9014 142.75 25.3024 143.926 25.3024H144.387V26.0085C143.31 25.9867 142.237 25.9388 141.113 25.9388C139.989 25.9388 138.735 25.9867 137.839 26.0085V25.3024Z" fill="white"/>
<path d="M146.464 25.3024H146.925C148.101 25.3024 148.614 24.9014 148.614 23.3715V11.8863C148.614 10.3564 148.101 9.95538 146.925 9.95538H146.464V9.24927C147.205 9.27106 150.121 9.31901 152.681 9.31901C155.701 9.31901 156.903 9.27106 158.695 9.24927C158.721 10.6135 158.798 11.9778 158.876 13.1329H158.16C157.954 11.3197 157.725 10.1428 153.503 10.1428H150.867V16.8029H153.094C156.218 16.8029 156.317 16.3104 156.368 15.0594H157.083C157.058 15.4604 157.032 16.1883 157.032 17.2257C157.032 18.1454 157.058 18.8951 157.083 19.745H156.368C156.239 18.1933 156.213 17.6965 153.322 17.6965H150.867V23.3671C150.867 24.897 151.379 25.298 152.556 25.298H153.017V26.0042C151.94 25.9824 150.867 25.9344 149.742 25.9344C148.618 25.9344 147.364 25.9824 146.468 26.0042V25.298L146.464 25.3024Z" fill="white"/>
<path d="M159.949 25.3024H160.41C161.586 25.3024 162.099 24.9014 162.099 23.3715V11.8863C162.099 10.3564 161.586 9.95538 160.41 9.95538H159.949V9.24927C160.767 9.27106 163.684 9.31901 166.243 9.31901C169.263 9.31901 170.465 9.27106 172.257 9.24927C172.309 10.7094 172.361 11.9778 172.485 13.2506H171.77C171.516 11.603 171.335 10.1428 166.807 10.1428H164.352V16.8029H166.579C169.702 16.8029 169.801 16.3104 169.853 14.92H170.568C170.542 15.4604 170.517 16.1927 170.517 17.2257C170.517 18.1454 170.542 18.8951 170.568 19.3658H169.853C169.724 18.189 169.698 17.6965 166.807 17.6965H164.352V23.3453C164.352 24.7576 164.916 25.1106 166.553 25.1106H167.242C171.542 25.1106 172.666 24.3566 173.076 21.7457H173.791C173.61 23.2059 173.459 24.5701 173.278 26.0042C171.744 25.9824 169.004 25.9344 166.243 25.9344C163.068 25.9344 160.767 25.9824 159.949 26.0042V25.298V25.3024Z" fill="white"/>
<path d="M64.3637 13.172H63.6485C63.2392 10.6526 60.0641 9.71114 57.3285 9.71114C53.0031 9.71114 49.6513 12.3482 49.6513 17.0556C49.6513 21.2443 53.0548 25.1977 57.7894 25.1977C59.7324 25.1977 60.5036 24.9143 62.1665 24.2344V20.3028C62.1665 19.5967 61.9856 19.0562 60.6802 19.0562H60.3226V18.3501C61.167 18.3719 62.2397 18.4199 63.2651 18.4199C64.2904 18.4199 65.2339 18.3719 66.2075 18.3501V19.0562H65.6432C65.0271 19.0562 64.4154 19.2698 64.4154 20.2331V24.9405C62.3948 25.5071 60.0124 26.0955 57.3285 26.0955C49.6255 26.0955 47.0923 21.0351 47.0923 17.6004C47.0923 12.5399 51.185 8.72607 57.5826 8.72607C60.1158 8.72607 62.6749 9.45398 64.3637 9.97267V13.172Z" fill="white"/>
<path d="M67.0518 25.08H67.5127C68.6889 25.08 69.2015 24.679 69.2015 23.1491V11.6639C69.2015 10.134 68.6889 9.73297 67.5127 9.73297H67.0518V9.02686C67.9479 9.04865 69.1757 9.0966 70.326 9.0966C71.4762 9.0966 72.5274 9.04865 73.6001 9.02686V9.73297H73.1392C71.963 9.73297 71.4504 10.134 71.4504 11.6639V23.1491C71.4504 24.679 71.963 25.08 73.1392 25.08H73.6001V25.7861C72.5231 25.7643 71.4504 25.7164 70.326 25.7164C69.2015 25.7164 67.9479 25.7643 67.0518 25.7861V25.08Z" fill="white"/>
<path d="M75.1123 25.08H75.5733C76.7494 25.08 77.2621 24.679 77.2621 23.1491V11.6639C77.2621 10.134 76.7494 9.73297 75.5733 9.73297H75.1123V9.02686C75.8533 9.04865 78.7699 9.0966 81.329 9.0966C84.349 9.0966 85.5509 9.04865 87.3431 9.02686C87.369 10.3911 87.4465 11.7554 87.5241 12.9105H86.8089C86.6021 11.0972 86.3738 9.92039 82.1518 9.92039H79.5152V16.5805H81.7425C84.866 16.5805 84.965 16.088 85.0167 14.837H85.7319C85.706 15.238 85.6802 15.9659 85.6802 17.0033C85.6802 17.923 85.706 18.6727 85.7319 19.5226H85.0167C84.8875 17.9709 84.8616 17.474 81.9709 17.474H79.5152V23.1447C79.5152 24.6746 80.0279 25.0756 81.204 25.0756H81.665V25.7817C80.5923 25.76 79.5152 25.712 78.3908 25.712C77.2664 25.712 76.0127 25.76 75.1166 25.7817V25.0756L75.1123 25.08Z" fill="white"/>
<path d="M93.5902 25.08H94.1804C95.5633 25.08 95.8175 24.7749 95.8175 22.844V10.0163H92.9008C90.1609 10.0163 89.8291 11.4765 89.6784 13.3115H88.8081V9.02686C89.575 9.04865 93.6203 9.0966 96.9462 9.0966C100.018 9.0966 104.214 9.04865 105.084 9.02686V13.3115H104.214C104.059 11.4765 103.727 10.0163 100.992 10.0163H98.0749V22.844C98.0749 24.7749 98.3291 25.08 99.712 25.08H100.302V25.7861C99.3286 25.7643 98.23 25.7164 96.9505 25.7164C95.671 25.7164 94.5724 25.7643 93.5988 25.7861V25.08H93.5902Z" fill="white"/>
<path d="M109.358 21.4624C108.527 22.3211 107.17 23.062 105.955 23.062C104.115 23.062 103.038 21.3404 103.038 19.6361C103.038 17.2126 105.296 14.8066 107.708 14.8066C109.53 14.8066 110.763 16.4935 110.763 18.2326C110.763 19.4094 110.19 20.6386 109.358 21.4624ZM107.816 15.1597C105.489 15.1597 104.292 18.25 104.292 20.2158C104.292 21.4275 104.675 22.6741 106.08 22.6741C108.32 22.6741 109.569 19.3397 109.569 17.4437C109.569 16.2494 109.169 15.1597 107.816 15.1597Z" fill="white"/>
<path d="M112.986 22.831C112.693 23.7637 112.499 24.5352 111.96 25.359C111.404 26.2002 110.573 26.8671 109.513 26.8671C108.837 26.8671 107.932 26.5707 107.932 25.7426C107.932 25.3198 108.26 25.006 108.677 25.006C109.25 25.006 109.457 25.5334 109.423 26.0433C109.423 26.3223 109.406 26.5707 109.754 26.5707C110.172 26.5707 110.448 26.27 110.655 25.9387C111.09 25.2544 111.521 23.7419 111.766 22.9356L114.007 15.5258H113.05C112.964 15.5258 112.65 15.5781 112.65 15.4037C112.65 15.0507 112.856 15.0681 113.136 15.0681H114.144L114.231 14.7717C114.524 13.8041 114.924 12.6316 115.618 11.8906C116.191 11.2934 117.371 10.6091 118.203 10.6091C118.845 10.6091 119.469 10.8881 119.469 11.6291C119.469 12.1042 119.176 12.4006 118.724 12.4006C117.647 12.4006 118.306 11.0842 117.544 11.0842C117.233 11.0842 116.884 11.3632 116.695 11.5942C116.174 12.1739 115.881 13.2462 115.652 14.0002L115.321 15.0725H116.639C116.691 15.0725 117.04 15.0376 117.04 15.1945C117.04 15.2642 117.022 15.3165 116.971 15.4386C116.884 15.5606 116.678 15.5258 116.57 15.5258H115.183L112.977 22.831H112.986Z" fill="white"/>
<path d="M47.4756 40.0827H47.7125C48.3243 40.0827 48.5871 39.8735 48.5871 39.0802V33.1262C48.5871 32.3329 48.32 32.1237 47.7125 32.1237H47.4756V31.7576C47.9409 31.7706 48.5785 31.7924 49.173 31.7924C50.2328 31.7924 51.3098 31.7576 52.3696 31.7576C55.954 31.7576 57.212 34.4425 57.212 36.016C57.212 37.7987 55.9368 40.4445 51.8785 40.4445C51.0686 40.4445 50.1122 40.4096 49.173 40.4096C48.5742 40.4096 47.9409 40.4358 47.4756 40.4445V40.0783V40.0827ZM49.7589 38.8753C49.7589 39.8255 50.1854 39.9868 51.6976 39.9868C54.0197 39.9868 55.9454 39.0584 55.9454 36.3386C55.9454 34.5559 54.7391 32.176 51.4477 32.176C50.8919 32.176 50.3319 32.224 49.7632 32.2719V38.8753H49.7589Z" fill="white"/>
<path d="M63.3426 31.6006C65.9835 31.6006 68.2927 33.5663 68.2927 36.1031C68.2927 38.2519 66.4876 40.6057 63.3038 40.6057C60.4389 40.6057 58.3667 38.6181 58.3667 36.199C58.3667 33.4792 60.7276 31.5962 63.3426 31.5962V31.6006ZM63.3038 32.1149C61.447 32.1149 59.6936 33.1653 59.6936 35.9941C59.6936 37.973 61.0981 40.1436 63.3814 40.1436C65.837 40.1436 66.9658 38.483 66.9658 36.2382C66.9658 34.2724 65.6259 32.1149 63.3038 32.1149Z" fill="white"/>
<path d="M69.1971 40.0827H69.4082C70.1105 40.0827 70.2311 39.8125 70.2699 38.531C70.3216 36.9183 70.3474 34.5994 70.3474 33.1872C70.3474 32.3068 70.0545 32.1237 69.391 32.1237H69.0205V31.7576C69.3781 31.7706 69.7787 31.7924 70.188 31.7924C70.5585 31.7924 70.9032 31.7663 71.2349 31.7576L77.486 38.823H77.5119L77.4343 33.8192C77.4085 32.4157 77.2103 32.1237 76.4908 32.1237H76.3314V31.7576C76.7407 31.7706 77.2749 31.7924 77.766 31.7924C78.2572 31.7924 78.7225 31.7663 79.2007 31.7576V32.1237H78.9896C78.5803 32.1237 78.1926 32.2588 78.1538 33.44L77.9168 40.5535H77.5205L70.9376 33.1349H70.9118C70.9118 35.0266 70.9376 36.9052 70.9893 38.7969C71.0152 39.7994 71.2263 40.0783 71.851 40.0783H72.1181V40.4445C71.6786 40.4314 71.1487 40.4096 70.6576 40.4096C70.1665 40.4096 69.6107 40.4358 69.1971 40.4445V40.0783V40.0827Z" fill="white"/>
<path d="M85.1331 31.6006C87.774 31.6006 90.0832 33.5663 90.0832 36.1031C90.0832 38.2519 88.2781 40.6057 85.0944 40.6057C82.2294 40.6057 80.1572 38.6181 80.1572 36.199C80.1572 33.4792 82.5181 31.5962 85.1331 31.5962V31.6006ZM85.0944 32.1149C83.2376 32.1149 81.4841 33.1653 81.4841 35.9941C81.4841 37.973 82.8929 40.1436 85.1719 40.1436C87.6276 40.1436 88.7563 38.483 88.7563 36.2382C88.7563 34.2724 87.4165 32.1149 85.0944 32.1149Z" fill="white"/>
<path d="M91.0913 40.0827H91.3283C91.94 40.0827 92.2028 39.8735 92.2028 39.0802V33.1262C92.2028 32.3329 91.9357 32.1237 91.3283 32.1237H91.0913V31.7576C91.5566 31.7706 92.1942 31.7924 92.7887 31.7924C93.6762 31.7924 94.3138 31.7576 94.8997 31.7576C97.2477 31.7576 97.6742 33.4531 97.6742 34.0154C97.6742 35.615 96.455 36.1032 95.7915 36.2993L97.5708 39.0105C98.2988 40.1089 98.5142 40.183 99.587 40.244V40.5011C99.3371 40.5011 99.0958 40.5142 98.846 40.5142C97.6785 40.5142 97.1356 40.3791 96.4291 39.3199L94.8782 36.988C94.5723 36.5347 94.4 36.5129 93.3789 36.4868V38.7925C93.3789 39.9519 93.603 40.0871 94.1329 40.0871H94.5163V40.4532C93.9304 40.4401 93.3746 40.4183 92.793 40.4183C92.2114 40.4183 91.5609 40.4445 91.0956 40.4532V40.0871L91.0913 40.0827ZM93.3746 35.9332C93.5987 36.0073 93.9304 36.0204 94.275 36.0204C95.4684 36.0204 96.4506 35.5191 96.4506 34.2508C96.4506 33.7146 96.0543 32.224 94.2061 32.224C93.8873 32.224 93.6331 32.2501 93.3703 32.2719V35.9332H93.3746Z" fill="white"/>
<path d="M105.541 40.0827H105.778C106.39 40.0827 106.653 39.8735 106.653 39.0802V33.1262C106.653 32.3329 106.385 32.1237 105.778 32.1237H105.541V31.7576C106.006 31.7706 106.644 31.7924 107.238 31.7924C107.954 31.7924 108.686 31.7576 109.401 31.7576C111.538 31.7576 112.201 33.1001 112.201 34.0633C112.201 35.1486 111.486 36.3952 109.044 36.3952C108.634 36.3952 108.234 36.3604 107.824 36.3211V38.7882C107.824 39.9476 108.048 40.0827 108.578 40.0827H108.962V40.4488C108.376 40.4358 107.82 40.414 107.238 40.414C106.657 40.414 106.006 40.4401 105.541 40.4488V40.0827ZM107.824 35.6412C108.315 35.8591 108.755 35.9332 109.19 35.9332C110.504 35.9332 110.931 35.031 110.931 34.2987C110.931 32.869 110.082 32.1281 108.66 32.1281C108.341 32.1281 108.048 32.1542 107.824 32.176V35.6412Z" fill="white"/>
<path d="M113.489 40.0827H113.726C114.338 40.0827 114.601 39.8735 114.601 39.0802V33.1262C114.601 32.3329 114.334 32.1237 113.726 32.1237H113.489V31.7576C113.955 31.7706 114.592 31.7924 115.187 31.7924C116.074 31.7924 116.712 31.7576 117.298 31.7576C119.646 31.7576 120.072 33.4531 120.072 34.0154C120.072 35.615 118.853 36.1032 118.189 36.2993L119.969 39.0105C120.697 40.1089 120.912 40.183 121.985 40.244V40.5011C121.731 40.5011 121.494 40.5142 121.244 40.5142C120.076 40.5142 119.534 40.3791 118.827 39.3199L117.276 36.988C116.97 36.5347 116.798 36.5129 115.777 36.4868V38.7925C115.777 39.9519 116.001 40.0871 116.535 40.0871H116.919V40.4532C116.333 40.4401 115.777 40.4183 115.195 40.4183C114.614 40.4183 113.963 40.4445 113.498 40.4532V40.0871L113.489 40.0827ZM115.773 35.9332C115.997 36.0073 116.328 36.0204 116.673 36.0204C117.866 36.0204 118.849 35.5191 118.849 34.2508C118.849 33.7146 118.452 32.224 116.604 32.224C116.285 32.224 116.035 32.2501 115.768 32.2719V35.9332H115.773Z" fill="white"/>
<path d="M126.982 31.6006C129.623 31.6006 131.932 33.5663 131.932 36.1031C131.932 38.2519 130.127 40.6057 126.943 40.6057C124.079 40.6057 122.006 38.6181 122.006 36.199C122.006 33.4792 124.367 31.5962 126.982 31.5962V31.6006ZM126.943 32.1149C125.087 32.1149 123.333 33.1653 123.333 35.9941C123.333 37.973 124.738 40.1436 127.021 40.1436C129.477 40.1436 130.605 38.483 130.605 36.2382C130.605 34.2724 129.266 32.1149 126.943 32.1149Z" fill="white"/>
<path d="M142.401 33.9063H142.031C141.82 32.5987 140.174 32.1105 138.752 32.1105C136.508 32.1105 134.772 33.4792 134.772 35.92C134.772 38.0907 136.538 40.1436 138.994 40.1436C140.002 40.1436 140.398 39.9954 141.264 39.6424V37.6025C141.264 37.2364 141.169 36.9574 140.493 36.9574H140.308V36.5913C140.747 36.6044 141.303 36.6261 141.833 36.6261C142.363 36.6261 142.854 36.6 143.358 36.5913V36.9574H143.065C142.746 36.9574 142.427 37.0664 142.427 37.5676V40.0085C141.38 40.3005 140.144 40.6057 138.752 40.6057C134.759 40.6057 133.445 37.9817 133.445 36.199C133.445 33.575 135.569 31.5962 138.886 31.5962C140.2 31.5962 141.527 31.9754 142.401 32.2413V33.902V33.9063Z" fill="white"/>
<path d="M144.164 40.0827H144.401C145.012 40.0827 145.275 39.8735 145.275 39.0802V33.1262C145.275 32.3329 145.008 32.1237 144.401 32.1237H144.164V31.7576C144.629 31.7706 145.266 31.7924 145.861 31.7924C146.748 31.7924 147.386 31.7576 147.972 31.7576C150.32 31.7576 150.746 33.4531 150.746 34.0154C150.746 35.615 149.527 36.1032 148.864 36.2993L150.643 39.0105C151.371 40.1089 151.587 40.183 152.659 40.244V40.5011C152.409 40.5011 152.168 40.5142 151.918 40.5142C150.751 40.5142 150.208 40.3791 149.501 39.3199L147.95 36.988C147.645 36.5347 147.472 36.5129 146.451 36.4868V38.7925C146.451 39.9519 146.675 40.0871 147.205 40.0871H147.589V40.4532C147.003 40.4401 146.447 40.4183 145.865 40.4183C145.284 40.4183 144.633 40.4445 144.168 40.4532V40.0871L144.164 40.0827ZM146.447 35.9332C146.671 36.0073 147.003 36.0204 147.347 36.0204C148.541 36.0204 149.523 35.5191 149.523 34.2508C149.523 33.7146 149.127 32.224 147.283 32.224C146.964 32.224 146.71 32.2501 146.447 32.2719V35.9332Z" fill="white"/>
<path d="M152.258 40.0826H152.418C153.146 40.0826 153.439 39.7775 153.852 38.7663L156.89 31.4175H157.139L160.551 38.897C160.87 39.6031 161.28 40.0826 161.891 40.0826H162.171V40.4487C161.667 40.4226 161.056 40.4139 160.366 40.4139C159.677 40.4139 159.026 40.4269 158.535 40.4487V40.0826H158.867C159.294 40.0826 159.543 39.9475 159.543 39.6903C159.543 39.5203 159.41 39.1891 159.358 39.0801L158.389 36.8833H155.296L154.593 38.8099C154.499 39.0539 154.369 39.4201 154.369 39.6903C154.369 39.9083 154.503 40.0826 154.912 40.0826H155.205V40.4487C154.74 40.4226 154.197 40.4139 153.572 40.4139C153.068 40.4139 152.577 40.4269 152.258 40.4487V40.0826ZM156.704 33.0781L155.472 36.4213H158.191L156.704 33.0781Z" fill="white"/>
<path d="M162.012 40.0827H162.249C162.9 40.0827 163.124 39.7776 163.167 38.2869C163.206 36.5914 163.3 34.8828 163.3 33.1262C163.3 32.3068 163.033 32.1237 162.331 32.1237H162.094V31.7576C162.508 31.7706 162.822 31.7924 163.236 31.7924C163.649 31.7924 164.136 31.7663 164.296 31.7576L167.945 38.9233L171.167 31.7576C171.594 31.7706 172.003 31.7924 172.386 31.7924C172.77 31.7924 173.196 31.7663 173.605 31.7576V32.1237H173.433C172.821 32.1237 172.412 32.2588 172.412 33.1262C172.412 33.7495 172.464 36.8137 172.494 38.6531C172.507 39.8735 172.653 40.0827 173.424 40.0827H173.692V40.4488C173.252 40.4358 172.696 40.414 171.994 40.414C171.292 40.414 170.719 40.4401 170.271 40.4488V40.0827H170.469C171.21 40.0827 171.357 39.8648 171.357 38.7882V32.638H171.331L167.777 40.5578H167.484L163.835 33.3441H163.809V38.3479C163.809 39.6774 163.929 40.0827 164.657 40.0827H164.843V40.4488C164.511 40.4358 164.033 40.414 163.438 40.414C162.844 40.414 162.417 40.4401 162.021 40.4488V40.0827H162.012Z" fill="white"/>
<path d="M173.614 28.4319H47.6694V29.1554H173.614V28.4319Z" fill="white"/>
<path d="M21.0109 0C23.1563 0 25.1725 0.84559 26.689 2.37986C28.2055 3.91412 29.0413 5.954 29.0413 8.12464C29.0413 12.6054 25.4396 16.2493 21.0109 16.2493C18.8654 16.2493 16.8492 15.4037 15.3327 13.8694C13.8163 12.3352 12.9805 10.2953 12.9805 8.12464C12.9805 5.954 13.8163 3.91412 15.3327 2.37986C16.8492 0.84559 18.8654 0 21.0109 0Z" fill="white"/>
<path d="M19.882 42.506C15.1516 39.5421 10.1757 34.1721 8.47397 29.3035H0.357422C2.33486 37.2102 14.5011 45.7968 19.882 46.9911V42.506Z" fill="white"/>
<path d="M22.0835 42.5365V46.9998C27.4385 45.8447 39.678 37.2319 41.6597 29.2991H33.5432C31.8328 34.1852 26.8311 39.5769 22.0878 42.5321L22.0835 42.5365Z" fill="white"/>
<path d="M38.0839 16.271C35.3224 13.4771 32.4058 12.383 29.9587 12.0518C29.4848 13.2983 28.7524 14.4403 27.7917 15.4167C25.9823 17.2473 23.5741 18.2586 21.0107 18.2586C18.4474 18.2586 16.0434 17.2473 14.2297 15.4167C13.269 14.4447 12.5366 13.2983 12.0627 12.0518C9.61565 12.3874 6.69903 13.4771 3.93751 16.271C1.08121 19.1565 -0.275858 23.0226 0.047253 27.2462H7.95701C7.65544 25.2107 8.06903 23.3452 9.49933 21.8981C14.9405 16.393 21.0064 23.9118 21.0064 23.9118C21.0064 23.9118 27.0723 16.393 32.5135 21.8981C33.9438 23.3452 34.3573 25.2064 34.0558 27.2462H41.9655C42.2887 23.0226 40.9316 19.1608 38.0753 16.271H38.0839Z" fill="white"/>
</g>
<defs>
<clipPath id="clip0_888_112">
<rect width="173.791" height="47" fill="white"/>
</clipPath>
</defs>
</svg>
