<svg width="64" height="64" viewBox="0 0 64 64" fill="none" xmlns="http://www.w3.org/2000/svg">
<path d="M21.4445 54C21.1503 54.6423 21.0213 55.348 21.0694 56.0528C21.1175 56.7577 21.3412 57.4393 21.72 58.0357C22.0989 58.632 22.6209 59.1241 23.2385 59.4672C23.8561 59.8102 24.5497 59.9934 25.2562 59.9999L38.7443 60C39.4564 60.0017 40.1571 59.8222 40.7805 59.4783C41.404 59.1344 41.9296 58.6374 42.3078 58.0341C44.74 53.8503 39.4548 49.2495 35.8651 47.9924C36.9136 47.1854 37.6832 46.0703 38.0659 44.8037C38.4485 43.5371 38.4251 42.1825 37.9989 40.9299C37.5726 39.6773 36.765 38.5895 35.6891 37.8192C34.6133 37.0489 33.3234 36.6348 32.0002 36.6348C30.6771 36.6348 29.3871 37.049 28.3113 37.8193C27.2356 38.5897 26.4279 39.6774 26.0017 40.93C25.5755 42.1827 25.5521 43.5373 25.9348 44.8039C26.3175 46.0705 27.0871 47.1855 28.1357 47.9925C26.6802 48.5047 25.34 49.299 24.1918 50.3298C23.0436 51.3607 22.1101 52.6079 21.4445 54ZM32.0002 38.6347C33.1448 38.645 34.2391 39.1069 35.0449 39.92C35.8506 40.733 36.3027 41.8314 36.3027 42.9761C36.3026 44.1208 35.8506 45.2191 35.0448 46.0322C34.239 46.8452 33.1447 47.3071 32.0001 47.3173C30.8555 47.307 29.7612 46.8451 28.9555 46.0321C28.1497 45.219 27.6976 44.1207 27.6977 42.976C27.6977 41.8313 28.1498 40.733 28.9555 39.9199C29.7613 39.1069 30.8556 38.645 32.0002 38.6347ZM32.0002 49.3222C33.8317 49.3279 35.6243 49.8503 37.1721 50.8295C38.7198 51.8087 39.9597 53.2048 40.7492 54.8574C40.9105 55.1905 40.9831 55.5595 40.96 55.9289C40.9369 56.2982 40.8189 56.6554 40.6174 56.9658C40.4186 57.2829 40.1423 57.5443 39.8147 57.7252C39.487 57.9061 39.1187 58.0007 38.7443 58H25.2561C24.8818 58.0007 24.5134 57.9061 24.1858 57.7252C23.8581 57.5443 23.5819 57.2829 23.3831 56.9658C23.1816 56.6554 23.0636 56.2982 23.0405 55.9289C23.0174 55.5595 23.09 55.1905 23.2512 54.8574C24.0407 53.2048 25.2806 51.8087 26.8284 50.8295C28.3761 49.8503 30.1688 49.3279 32.0002 49.3222Z" fill="#00539F"/>
<path d="M51.1652 45.858C52.2609 45.0085 53.0497 43.8248 53.4118 42.4865C53.7739 41.1482 53.6896 39.7283 53.1716 38.4422C53.9642 34.3802 53.5716 30.1759 52.0408 26.3309C50.5099 22.4859 47.9053 19.1623 44.5377 16.7567C49.6529 7.30889 38.9635 -0.528178 32.0134 7.01174C30.9965 5.77654 29.6403 4.86593 28.112 4.39218C26.5838 3.91842 24.9504 3.90223 23.413 4.34559C18.2686 6.26642 16.7673 11.2231 19.462 16.7566C16.6639 18.7482 14.3832 21.3808 12.8106 24.4342C11.238 27.4875 10.4193 30.873 10.4228 34.3076C10.4246 35.6975 10.5597 37.084 10.8261 38.4481C10.3099 39.7337 10.2267 41.1525 10.5892 42.4896C10.9517 43.8267 11.74 45.0092 12.8348 45.8581C9.22108 47.1215 3.96258 51.7128 6.39229 55.9042C6.77062 56.5056 7.29564 57.0009 7.91802 57.3435C8.54039 57.6862 9.23967 57.865 9.95015 57.8632H17.8456C18.1078 57.8585 18.3576 57.751 18.5413 57.564C18.725 57.377 18.8279 57.1253 18.8279 56.8631C18.8279 56.601 18.7249 56.3493 18.5412 56.1623C18.3575 55.9753 18.1077 55.8679 17.8456 55.8632H9.95015C9.57703 55.864 9.20982 55.77 8.88302 55.59C8.55622 55.4099 8.28056 55.1498 8.08195 54.8339C7.87975 54.5225 7.7613 54.1642 7.73803 53.7937C7.71477 53.4232 7.78748 53.0529 7.94914 52.7187C8.73748 51.0672 9.9764 49.6722 11.5231 48.6943C13.0698 47.7163 14.8614 47.1953 16.6913 47.1913C18.4517 47.1884 20.1789 47.6702 21.6835 48.5839C21.9103 48.7215 22.1823 48.7636 22.4401 48.701C22.6978 48.6384 22.9202 48.4762 23.0585 48.2499C23.7695 46.7631 21.5115 46.3219 20.5397 45.8709C21.2172 45.3557 21.7839 44.7092 22.2059 43.97C22.6279 43.2309 22.8965 42.4143 22.9958 41.5689C23.095 40.7236 23.0229 39.867 22.7836 39.0502C22.5443 38.2334 22.1429 37.4732 21.6032 36.815C21.0635 36.1569 20.3966 35.6143 19.6425 35.2197C18.8884 34.8251 18.0625 34.5865 17.2141 34.5183C16.3657 34.4501 15.5123 34.5536 14.7048 34.8226C13.8973 35.0917 13.1523 35.5208 12.5144 36.0842C12.4612 35.4937 12.4228 34.901 12.4228 34.3075C12.4193 31.2201 13.148 28.176 14.5491 25.4249C15.9502 22.6738 17.9838 20.2942 20.4829 18.4815C22.8846 21.761 25.952 24.4962 29.4843 26.5076C30.2418 26.9704 31.1122 27.2153 31.9998 27.2155C32.8874 27.2157 33.7579 26.9711 34.5156 26.5086C38.048 24.4969 41.1155 21.7614 43.5171 18.4816C46.0162 20.2943 48.0497 22.6739 49.4508 25.425C50.8519 28.176 51.5806 31.2202 51.5771 34.3075C51.5771 34.9026 51.5416 35.4962 51.4884 36.0868C50.8507 35.5232 50.1059 35.094 49.2985 34.8247C48.4911 34.5555 47.6377 34.4518 46.7894 34.5197C45.941 34.5877 45.115 34.826 44.3608 35.2204C43.6066 35.6148 42.9397 36.1571 42.3998 36.8151C41.8599 37.473 41.4582 38.2331 41.2187 39.0498C40.9792 39.8665 40.9068 40.7231 41.0058 41.5684C41.1048 42.4137 41.3731 43.2304 41.7949 43.9696C42.2166 44.7089 42.783 45.3555 43.4603 45.8709C42.6988 46.1282 41.9665 46.4647 41.2753 46.8749C41.0487 47.0129 40.8862 47.2354 40.8236 47.4932C40.7609 47.7511 40.8033 48.0233 40.9413 48.2499C41.0794 48.4765 41.3018 48.639 41.5597 48.7017C41.8175 48.7643 42.0897 48.7219 42.3163 48.5839C43.4758 47.8955 44.7657 47.4554 46.1042 47.2917C47.4427 47.128 48.8007 47.2441 50.0919 47.6328C51.3832 48.0214 52.5796 48.6741 53.6053 49.5495C54.6311 50.4248 55.4638 51.5037 56.0507 52.7178C56.2049 53.0547 56.2724 53.4249 56.247 53.7946C56.2215 54.1643 56.104 54.5217 55.9051 54.8344C55.7062 55.147 55.4322 55.405 55.1082 55.5846C54.7841 55.7643 54.4202 55.8601 54.0497 55.8632H46.1542C45.8916 55.8671 45.641 55.9741 45.4566 56.1612C45.2723 56.3484 45.1689 56.6005 45.1689 56.8632C45.1689 57.1258 45.2723 57.378 45.4566 57.5651C45.641 57.7522 45.8916 57.8593 46.1542 57.8632H54.0498C54.7602 57.865 55.4595 57.6862 56.0818 57.3435C56.7041 57.0008 57.2291 56.5055 57.6074 55.9042C60.0481 51.7207 54.7635 47.1111 51.1652 45.858ZM16.6962 36.498C17.8408 36.5084 18.9349 36.9704 19.7405 37.7834C20.5462 38.5965 20.9982 39.6948 20.9981 40.8393C20.9981 41.9839 20.5461 43.0822 19.7405 43.8952C18.9348 44.7082 17.8407 45.1702 16.6961 45.1806C15.5512 45.1708 14.4565 44.709 13.6504 43.8959C12.8442 43.0828 12.392 41.9842 12.392 40.8392C12.392 39.6942 12.8443 38.5956 13.6504 37.7825C14.4566 36.9695 15.5513 36.5078 16.6962 36.498ZM33.4648 24.8065C33.0237 25.076 32.5167 25.2186 31.9998 25.2184C31.4829 25.2182 30.976 25.0753 30.5351 24.8055C18.9081 17.7345 17.3867 8.99599 24.0134 6.25367C25.1944 5.92758 26.4453 5.95631 27.61 6.33629C28.7748 6.71628 29.8019 7.4307 30.5634 8.39049C30.7505 8.58196 30.9739 8.73409 31.2206 8.83797C31.4673 8.94184 31.7323 8.99535 31.9999 8.99535C32.2676 8.99535 32.5326 8.94184 32.7793 8.83797C33.0259 8.73409 33.2494 8.58196 33.4364 8.39049C36.7491 4.32174 43.204 5.76738 43.8104 10.9454C44.0703 13.0341 43.583 18.5653 33.4648 24.8065ZM47.3037 36.4979C48.4484 36.5081 49.5428 36.9699 50.3487 37.783C51.1546 38.5961 51.6067 39.6945 51.6067 40.8393C51.6067 41.9841 51.1545 43.0825 50.3486 43.8956C49.5427 44.7086 48.4483 45.1704 47.3036 45.1806C46.1588 45.1704 45.0644 44.7086 44.2586 43.8955C43.4527 43.0824 43.0005 41.984 43.0006 40.8392C43.0006 39.6944 43.4527 38.596 44.2586 37.7829C45.0645 36.9699 46.1589 36.5081 47.3037 36.4979Z" fill="#00539F"/>
</svg>
