<svg width="282" height="51" viewBox="0 0 282 51" fill="none" xmlns="http://www.w3.org/2000/svg">
<path d="M21.0104 0C23.1558 0 25.172 0.84559 26.6885 2.37986C28.205 3.91412 29.0408 5.954 29.0408 8.12464C29.0408 12.6054 25.4391 16.2493 21.0104 16.2493C18.8649 16.2493 16.8487 15.4037 15.3322 13.8694C13.8158 12.3352 12.98 10.2953 12.98 8.12464C12.98 5.954 13.8158 3.91412 15.3322 2.37986C16.8487 0.84559 18.8649 0 21.0104 0Z" fill="white"/>
<path d="M19.8815 42.5062C15.1511 39.5423 10.1752 34.1724 8.47348 29.3037H0.356934C2.33437 37.2104 14.5006 45.7971 19.8815 46.9914V42.5062Z" fill="white"/>
<path d="M22.083 42.5367V47C27.438 45.845 39.6775 37.2322 41.6592 29.2993H33.5427C31.8323 34.1854 26.8306 39.5772 22.0873 42.5324L22.083 42.5367Z" fill="white"/>
<path d="M38.0834 16.271C35.3219 13.4771 32.4053 12.383 29.9582 12.0518C29.4843 13.2983 28.752 14.4403 27.7912 15.4167C25.9818 17.2473 23.5736 18.2586 21.0102 18.2586C18.4469 18.2586 16.0429 17.2473 14.2292 15.4167C13.2685 14.4447 12.5361 13.2983 12.0622 12.0518C9.61516 12.3874 6.69855 13.4771 3.93702 16.271C1.08072 19.1565 -0.276346 23.0226 0.0467647 27.2462H7.95652C7.65495 25.2107 8.06854 23.3452 9.49884 21.8981C14.94 16.393 21.0059 23.9118 21.0059 23.9118C21.0059 23.9118 27.0718 16.393 32.513 21.8981C33.9433 23.3452 34.3569 25.2064 34.0553 27.2462H41.9651C42.2882 23.0226 40.9311 19.1608 38.0748 16.271H38.0834Z" fill="white"/>
<path d="M269.659 30.777C269.635 30.9189 269.618 31.0608 269.606 31.2028C269.594 31.3447 269.588 31.4866 269.588 31.6285C269.588 32.0542 269.647 32.4623 269.765 32.8525C269.896 33.231 270.079 33.568 270.315 33.8637C270.564 34.1475 270.865 34.3722 271.22 34.5377C271.587 34.7033 272.001 34.7861 272.462 34.7861C274.011 34.7861 275.507 34.2598 276.95 33.2073C278.393 32.1548 279.83 30.4873 281.26 28.2048L281.864 28.737C281.083 30.0379 280.291 31.1377 279.487 32.0365C278.682 32.9235 277.878 33.6449 277.074 34.2007C276.282 34.7565 275.501 35.1586 274.732 35.407C273.964 35.6553 273.231 35.7795 272.533 35.7795C272.024 35.7795 271.486 35.7085 270.918 35.5666C270.351 35.4247 269.825 35.1882 269.34 34.8571C268.867 34.5259 268.476 34.0824 268.169 33.5266C267.85 32.9708 267.69 32.2789 267.69 31.4511C267.69 30.5641 267.844 29.7127 268.151 28.8967C268.447 28.0688 268.837 27.3001 269.322 26.5906C269.807 25.881 270.363 25.2365 270.989 24.657C271.616 24.0657 272.249 23.563 272.888 23.1491C273.538 22.7352 274.171 22.4159 274.786 22.1912C275.401 21.9547 275.945 21.8364 276.418 21.8364C276.725 21.8364 277.039 21.8837 277.358 21.9783C277.677 22.0729 277.961 22.2208 278.209 22.4218C278.47 22.6229 278.676 22.889 278.83 23.2201C278.996 23.5512 279.079 23.9474 279.079 24.4086C279.079 25.0354 278.931 25.6267 278.635 26.1825C278.351 26.7266 277.967 27.2351 277.482 27.7081C276.997 28.1693 276.435 28.5892 275.797 28.9676C275.158 29.3342 274.49 29.6476 273.792 29.9078C273.095 30.168 272.391 30.3749 271.681 30.5287C270.972 30.6824 270.298 30.7652 269.659 30.777ZM269.801 30.0142C270.593 29.9314 271.338 29.7659 272.036 29.5175C272.734 29.2692 273.372 28.9676 273.952 28.6128C274.531 28.2462 275.046 27.85 275.495 27.4243C275.956 26.9986 276.341 26.5669 276.648 26.1293C276.956 25.6918 277.192 25.2719 277.358 24.8698C277.523 24.4678 277.606 24.1071 277.606 23.7877C277.606 23.4684 277.517 23.2142 277.34 23.025C277.175 22.8357 276.973 22.7411 276.737 22.7411C276.217 22.7411 275.631 22.9303 274.981 23.3088C274.33 23.6754 273.68 24.1898 273.029 24.8521C272.379 25.5025 271.764 26.2712 271.185 27.1582C270.617 28.0452 270.156 28.9972 269.801 30.0142Z" fill="white"/>
<path d="M264.994 28.0278C264.804 27.6138 264.657 27.1822 264.55 26.7328C264.455 26.2834 264.408 25.8163 264.408 25.3314C264.408 24.7046 264.461 24.1783 264.568 23.7526C264.686 23.315 264.828 22.9662 264.994 22.706C265.159 22.434 265.337 22.2388 265.526 22.1206C265.727 22.0023 265.916 21.9432 266.093 21.9432C266.247 21.9432 266.389 21.9787 266.519 22.0496C266.661 22.1088 266.785 22.2152 266.892 22.3689C266.998 22.5227 267.081 22.7237 267.14 22.9721C267.211 23.2204 267.246 23.5279 267.246 23.8945C267.246 24.746 267.075 25.6211 266.732 26.5199C266.401 27.4187 265.951 28.2879 265.384 29.1276C264.828 29.9673 264.183 30.7596 263.45 31.5047C262.717 32.2497 261.96 32.9061 261.18 33.4737C260.967 33.6275 260.718 33.793 260.435 33.9704C260.163 34.136 259.867 34.2956 259.548 34.4494C259.24 34.5913 258.915 34.7155 258.572 34.8219C258.241 34.9165 257.916 34.9638 257.596 34.9638C256.804 34.9638 256.153 34.6682 255.645 34.0769C255.148 33.4737 254.9 32.6341 254.9 31.5579C254.9 31.0612 254.971 30.529 255.113 29.9613C255.255 29.3937 255.45 28.8142 255.698 28.2229C255.947 27.6198 256.236 27.0166 256.567 26.4135C256.899 25.8103 257.247 25.2368 257.614 24.6928C257.992 24.1369 258.383 23.6166 258.785 23.1317C259.187 22.6468 259.583 22.2211 259.973 21.8545L260.754 22.3689C260.068 23.4096 259.477 24.4208 258.98 25.4023C258.483 26.3721 258.069 27.2886 257.738 28.1519C257.419 29.0152 257.176 29.8076 257.011 30.529C256.857 31.2386 256.78 31.8535 256.78 32.3739C256.78 32.977 256.857 33.4087 257.011 33.6688C257.176 33.9172 257.407 34.0414 257.703 34.0414C257.987 34.0414 258.377 33.9408 258.873 33.7398C259.382 33.5269 259.967 33.1899 260.63 32.7287C261.469 32.1374 262.268 31.4396 263.024 30.6354C263.793 29.8194 264.45 28.9502 264.994 28.0278ZM265.561 27.1408C265.798 26.6086 265.981 26.0587 266.111 25.491C266.253 24.9116 266.324 24.3676 266.324 23.859C266.324 23.5042 266.294 23.25 266.235 23.0962C266.176 22.9425 266.129 22.8538 266.093 22.8302C266.082 22.8302 266.034 22.8656 265.951 22.9366C265.869 23.0075 265.774 23.1376 265.668 23.3269C265.573 23.5042 265.484 23.7585 265.402 24.0896C265.331 24.4089 265.295 24.8229 265.295 25.3314C265.295 25.627 265.313 25.9404 265.348 26.2716C265.396 26.6027 265.467 26.8924 265.561 27.1408Z" fill="white"/>
<path d="M252.346 29.9966C252.393 30.0085 252.44 30.0144 252.487 30.0144C252.535 30.0144 252.588 30.0144 252.647 30.0144C252.978 30.0144 253.28 29.9848 253.552 29.9257C253.824 29.8547 254.072 29.7483 254.297 29.6064C254.533 29.4645 254.758 29.2812 254.971 29.0565C255.184 28.8199 255.391 28.5361 255.592 28.205L256.23 28.7017C255.663 29.5059 255.077 30.0676 254.474 30.3869C253.871 30.7062 253.232 30.8659 252.558 30.8659C252.31 30.8659 252.091 30.8422 251.902 30.7949C251.394 31.6464 250.85 32.3737 250.27 32.9768C249.691 33.5682 249.099 34.053 248.496 34.4315C247.893 34.8099 247.296 35.0819 246.704 35.2475C246.113 35.4249 245.563 35.5136 245.055 35.5136C244.534 35.5136 244.049 35.419 243.6 35.2297C243.162 35.0523 242.784 34.7922 242.465 34.4492C242.145 34.1062 241.897 33.6982 241.72 33.2252C241.542 32.7521 241.454 32.22 241.454 31.6287C241.454 31.0374 241.548 30.4342 241.737 29.8193C241.927 29.2043 242.181 28.5952 242.5 27.9921C242.831 27.389 243.216 26.8095 243.653 26.2537C244.091 25.686 244.564 25.1597 245.072 24.6749C245.581 24.19 246.107 23.7524 246.651 23.3622C247.195 22.9719 247.739 22.6526 248.283 22.4042L248.851 23.1493C248.224 23.5987 247.585 24.1663 246.935 24.8523C246.296 25.5382 245.711 26.2891 245.179 27.1051C244.659 27.9212 244.227 28.7726 243.884 29.6596C243.553 30.5347 243.387 31.3862 243.387 32.2141C243.387 32.9591 243.553 33.5386 243.884 33.9525C244.215 34.3546 244.718 34.5556 245.392 34.5556C245.912 34.5556 246.427 34.4492 246.935 34.2363C247.444 34.0235 247.94 33.7337 248.425 33.3671C248.91 33.0005 249.377 32.5688 249.827 32.0721C250.276 31.5636 250.702 31.0255 251.104 30.4579C250.761 30.2568 250.459 29.9907 250.199 29.6596C249.939 29.3166 249.72 28.9323 249.543 28.5065C249.365 28.069 249.229 27.6018 249.135 27.1051C249.052 26.6084 249.011 26.0999 249.011 25.5796C249.011 25.0592 249.076 24.5684 249.206 24.1072C249.336 23.646 249.513 23.2439 249.738 22.9009C249.974 22.5462 250.246 22.2682 250.554 22.0672C250.861 21.8661 251.198 21.7656 251.565 21.7656C251.896 21.7656 252.192 21.8543 252.452 22.0317C252.712 22.1973 252.931 22.4338 253.108 22.7413C253.286 23.0369 253.422 23.3917 253.516 23.8056C253.611 24.2196 253.658 24.663 253.658 25.1361C253.658 25.4909 253.629 25.8811 253.57 26.3069C253.51 26.7326 253.422 27.1643 253.303 27.6018C253.197 28.0276 253.061 28.4533 252.895 28.8791C252.742 29.293 252.558 29.6655 252.346 29.9966ZM249.933 25.5796C249.933 25.9225 249.963 26.2951 250.022 26.6971C250.081 27.0992 250.175 27.4895 250.306 27.8679C250.436 28.2464 250.601 28.6012 250.802 28.9323C251.003 29.2516 251.252 29.5059 251.547 29.6951C251.76 29.2812 251.938 28.8613 252.079 28.4356C252.233 27.998 252.357 27.5782 252.452 27.1761C252.558 26.774 252.629 26.4015 252.665 26.0585C252.712 25.7037 252.736 25.3963 252.736 25.1361C252.736 24.7813 252.706 24.4561 252.647 24.1604C252.588 23.8648 252.505 23.6105 252.399 23.3976C252.304 23.1729 252.18 23.0015 252.026 22.8832C251.884 22.7531 251.725 22.6881 251.547 22.6881C251.311 22.6881 251.092 22.7709 250.891 22.9364C250.69 23.0902 250.518 23.303 250.376 23.575C250.235 23.8352 250.122 24.1427 250.039 24.4975C249.968 24.8404 249.933 25.2011 249.933 25.5796Z" fill="white"/>
<path d="M233.028 37.1099C232.259 37.1099 231.478 37.039 230.686 36.897C229.905 36.7669 229.113 36.5896 228.309 36.3649C227.505 36.152 226.7 35.9155 225.896 35.6553C225.092 35.3951 224.3 35.1408 223.519 34.8925C222.585 35.4602 221.609 35.9036 220.592 36.2229C219.575 36.5541 218.505 36.7196 217.381 36.7196C216.424 36.7196 215.69 36.5482 215.182 36.2052C214.673 35.8622 214.419 35.4069 214.419 34.8393C214.419 34.0942 214.833 33.5207 215.661 33.1186C216.489 32.7165 217.742 32.5154 219.421 32.5154C220.155 32.5154 220.894 32.5687 221.639 32.6751C222.384 32.7815 223.141 32.9175 223.91 33.0831C224.655 32.4327 225.364 31.6994 226.038 30.8834C226.712 30.0674 227.369 29.1923 228.007 28.258C227.522 28.3171 227.032 28.3644 226.535 28.3999C226.038 28.4236 225.536 28.4354 225.027 28.4354C223.17 28.4354 221.515 28.2166 220.06 27.7791C218.605 27.3297 217.376 26.7206 216.37 25.9519C215.365 25.1714 214.596 24.2608 214.064 23.2201C213.544 22.1675 213.284 21.0381 213.284 19.8319C213.284 18.4127 213.556 17.1532 214.1 16.0534C214.644 14.9536 215.389 14.0311 216.335 13.2861C217.293 12.5292 218.416 11.9556 219.705 11.5654C220.994 11.1633 222.378 10.9622 223.856 10.9622C224.791 10.9622 225.642 11.0332 226.411 11.1751C227.179 11.317 227.842 11.4707 228.398 11.6363C228.965 11.8019 229.409 11.9615 229.728 12.1153C230.047 12.269 230.225 12.3518 230.26 12.3636L229.799 13.1619C229.787 13.1619 229.639 13.0968 229.355 12.9668C229.072 12.8248 228.681 12.677 228.185 12.5233C227.688 12.3695 227.097 12.2276 226.411 12.0975C225.725 11.9674 224.986 11.9024 224.193 11.9024C222.798 11.9024 221.544 12.1094 220.433 12.5233C219.333 12.9254 218.399 13.4812 217.63 14.1908C216.873 14.9003 216.288 15.7341 215.874 16.692C215.472 17.6381 215.27 18.6492 215.27 19.7254C215.27 20.9317 215.548 22.0138 216.104 22.9717C216.66 23.9178 217.405 24.722 218.339 25.3842C219.274 26.0347 220.356 26.5314 221.586 26.8743C222.827 27.2173 224.128 27.3888 225.488 27.3888C226.044 27.3888 226.588 27.371 227.12 27.3356C227.664 27.3001 228.202 27.241 228.735 27.1582C229.574 25.8455 230.384 24.4855 231.165 23.0781C231.957 21.6708 232.744 20.2931 233.524 18.9449C234.305 17.5967 235.091 16.3195 235.884 15.1132C236.676 13.8951 237.498 12.8308 238.349 11.9201C239.213 11.0095 240.117 10.2881 241.063 9.75595C242.009 9.21194 243.027 8.93994 244.115 8.93994C244.54 8.93994 244.936 9.0109 245.303 9.15281C245.67 9.2829 245.989 9.48986 246.261 9.77369C246.533 10.0457 246.746 10.3946 246.9 10.8203C247.053 11.246 247.13 11.7427 247.13 12.3104C247.13 13.2328 246.953 14.2085 246.598 15.2374C246.243 16.2544 245.729 17.2774 245.055 18.3063C244.381 19.3233 243.559 20.3286 242.589 21.322C241.619 22.3035 240.519 23.2141 239.289 24.0538C238.06 24.8935 236.711 25.6444 235.245 26.3067C233.778 26.9571 232.217 27.4657 230.562 27.8323C229.781 28.9085 228.977 29.9255 228.149 30.8834C227.321 31.8295 226.446 32.6869 225.524 33.4556C226.423 33.6921 227.304 33.9464 228.167 34.2184C229.03 34.4786 229.846 34.7151 230.615 34.928C231.395 35.1527 232.117 35.336 232.779 35.4779C233.441 35.6316 234.027 35.7085 234.535 35.7085C235.292 35.7085 236.02 35.5784 236.717 35.3182C237.427 35.0581 238.131 34.5968 238.828 33.9346L239.556 34.5022C239.544 34.5141 239.479 34.5909 239.36 34.7328C239.242 34.8629 239.065 35.0226 238.828 35.2118C238.592 35.4129 238.296 35.6198 237.941 35.8327C237.586 36.0574 237.167 36.2643 236.682 36.4536C236.209 36.6428 235.665 36.7965 235.05 36.9148C234.447 37.0449 233.773 37.1099 233.028 37.1099ZM244.186 9.9156C243.523 9.9156 242.867 10.1521 242.216 10.6252C241.566 11.0982 240.91 11.7427 240.247 12.5588C239.585 13.3629 238.911 14.3149 238.225 15.4148C237.551 16.5028 236.853 17.6677 236.132 18.9094C235.41 20.1393 234.66 21.4107 233.879 22.7234C233.098 24.0361 232.282 25.3251 231.431 26.5905C232.85 26.2003 234.198 25.6917 235.476 25.0649C236.765 24.4382 237.953 23.7345 239.041 22.954C240.141 22.1734 241.128 21.3397 242.004 20.4527C242.891 19.5539 243.642 18.6374 244.256 17.7031C244.883 16.7689 245.362 15.8464 245.693 14.9358C246.024 14.0134 246.19 13.1323 246.19 12.2927C246.19 11.8551 246.137 11.4885 246.03 11.1928C245.924 10.8853 245.776 10.637 245.587 10.4478C245.41 10.2586 245.197 10.1226 244.948 10.0398C244.712 9.95699 244.458 9.9156 244.186 9.9156ZM217.275 35.7972C218.15 35.7972 218.978 35.673 219.759 35.4247C220.539 35.1882 221.296 34.857 222.029 34.4313C221.249 34.2066 220.492 34.0233 219.759 33.8814C219.037 33.7394 218.339 33.6685 217.665 33.6685C216.861 33.6685 216.27 33.7868 215.891 34.0233C215.525 34.2598 215.341 34.5318 215.341 34.8393C215.341 34.9339 215.365 35.0344 215.412 35.1408C215.472 35.2591 215.572 35.3655 215.714 35.4602C215.856 35.5548 216.051 35.6316 216.299 35.6908C216.548 35.7617 216.873 35.7972 217.275 35.7972Z" fill="white"/>
<path d="M193.008 33.5623C193.386 33.8579 193.889 34.0058 194.515 34.0058C195.189 34.0058 195.822 33.8993 196.413 33.6865C197.017 33.4736 197.578 33.1957 198.099 32.8527C198.619 32.4979 199.098 32.1077 199.536 31.6819C199.973 31.2562 200.363 30.8304 200.706 30.4047C201.061 29.9671 201.369 29.5591 201.629 29.1807C201.901 28.7904 202.12 28.4652 202.285 28.205H203.279C203.113 28.4889 202.882 28.8555 202.587 29.3049C202.303 29.7424 201.96 30.2096 201.558 30.7063C201.168 31.203 200.724 31.7056 200.227 32.2141C199.731 32.7108 199.181 33.1602 198.578 33.5623C197.986 33.9644 197.354 34.2955 196.68 34.5557C196.005 34.804 195.29 34.9282 194.533 34.9282C194.202 34.9282 193.877 34.8927 193.557 34.8218C193.25 34.739 192.948 34.6148 192.653 34.4493C192.262 35.4072 191.884 36.3474 191.517 37.2698C191.139 38.1922 190.784 39.0674 190.453 39.8952C190.11 40.723 189.797 41.4858 189.513 42.1836C189.229 42.8813 188.981 43.4845 188.768 43.993C188.555 44.5133 188.389 44.9213 188.271 45.217C188.153 45.5245 188.088 45.6841 188.076 45.696L186.213 44.7735C186.817 43.3544 187.361 42.0535 187.845 40.8709C188.318 39.6883 188.762 38.5825 189.176 37.5536C189.578 36.5248 189.962 35.5609 190.329 34.6621C190.684 33.7515 191.044 32.8705 191.411 32.019C191.222 31.747 191.086 31.4809 191.003 31.2207C190.908 30.9605 190.849 30.7477 190.826 30.5821C190.802 30.3101 190.879 30.0854 191.056 29.908C191.222 29.7188 191.441 29.6242 191.713 29.6242C191.937 29.6242 192.144 29.701 192.333 29.8548C192.688 29.0033 193.002 28.2583 193.274 27.6196C193.557 26.9692 193.794 26.4252 193.983 25.9876C194.196 25.4791 194.385 25.0356 194.551 24.6572C195.58 22.2328 196.532 20.1396 197.407 18.3775C198.294 16.6035 199.11 15.1016 199.855 13.8717C200.6 12.63 201.28 11.6306 201.895 10.8738C202.51 10.1051 203.066 9.50784 203.562 9.0821C204.071 8.65635 204.526 8.37252 204.928 8.23061C205.33 8.07687 205.691 8 206.01 8C206.531 8 206.968 8.11826 207.323 8.35479C207.69 8.57948 207.897 8.96975 207.944 9.52558C207.991 10.0696 207.891 10.7555 207.642 11.5833C207.406 12.4112 207.075 13.2922 206.649 14.2265C206.235 15.1489 205.75 16.0832 205.194 17.0293C204.639 17.9754 204.071 18.8446 203.491 19.637C202.392 21.1271 201.392 22.3629 200.493 23.3445C199.607 24.326 198.826 25.1184 198.152 25.7215C197.478 26.3247 196.916 26.7741 196.467 27.0697C196.017 27.3535 195.686 27.5487 195.473 27.6551L193.008 33.5623ZM206.844 9.79167C206.832 9.59062 206.785 9.41914 206.702 9.27723C206.631 9.12349 206.478 9.04662 206.241 9.04662C206.099 9.04662 205.916 9.0821 205.691 9.15305C205.466 9.21218 205.2 9.34818 204.893 9.56106C204.597 9.77393 204.26 10.0873 203.882 10.5012C203.503 10.9152 203.078 11.471 202.604 12.1687C202.143 12.8665 201.635 13.7298 201.079 14.7587C200.535 15.7875 199.949 17.0293 199.323 18.4839C198.909 19.4064 198.43 20.5298 197.886 21.8544C197.342 23.1671 196.745 24.5921 196.094 26.1295C196.65 25.7393 197.229 25.2544 197.833 24.6749C198.448 24.0836 199.063 23.4391 199.677 22.7413C200.304 22.0318 200.919 21.2808 201.522 20.4884C202.126 19.6961 202.699 18.8919 203.243 18.0759C203.787 17.2599 204.284 16.4498 204.733 15.6456C205.194 14.8414 205.585 14.0787 205.904 13.3573C206.235 12.624 206.483 11.9559 206.649 11.3527C206.815 10.7378 206.88 10.2174 206.844 9.79167Z" fill="white"/>
<path d="M189.549 29.9966C189.596 30.0085 189.643 30.0144 189.691 30.0144C189.738 30.0144 189.791 30.0144 189.85 30.0144C190.181 30.0144 190.483 29.9848 190.755 29.9257C191.027 29.8547 191.275 29.7483 191.5 29.6064C191.736 29.4645 191.961 29.2812 192.174 29.0565C192.387 28.8199 192.594 28.5361 192.795 28.205L193.434 28.7017C192.866 29.5059 192.281 30.0676 191.677 30.3869C191.074 30.7062 190.436 30.8659 189.762 30.8659C189.513 30.8659 189.294 30.8422 189.105 30.7949C188.597 31.6464 188.053 32.3737 187.473 32.9768C186.894 33.5682 186.302 34.053 185.699 34.4315C185.096 34.8099 184.499 35.0819 183.908 35.2475C183.316 35.4249 182.766 35.5136 182.258 35.5136C181.737 35.5136 181.253 35.419 180.803 35.2297C180.366 35.0523 179.987 34.7922 179.668 34.4492C179.349 34.1062 179.1 33.6982 178.923 33.2252C178.745 32.7521 178.657 32.22 178.657 31.6287C178.657 31.0374 178.751 30.4342 178.941 29.8193C179.13 29.2043 179.384 28.5952 179.703 27.9921C180.034 27.389 180.419 26.8095 180.856 26.2537C181.294 25.686 181.767 25.1597 182.276 24.6749C182.784 24.19 183.31 23.7524 183.854 23.3622C184.398 22.9719 184.942 22.6526 185.486 22.4042L186.054 23.1493C185.427 23.5987 184.789 24.1663 184.138 24.8523C183.5 25.5382 182.914 26.2891 182.382 27.1051C181.862 27.9212 181.43 28.7726 181.087 29.6596C180.756 30.5347 180.59 31.3862 180.59 32.2141C180.59 32.9591 180.756 33.5386 181.087 33.9525C181.418 34.3546 181.921 34.5556 182.595 34.5556C183.115 34.5556 183.63 34.4492 184.138 34.2363C184.647 34.0235 185.143 33.7337 185.628 33.3671C186.113 33.0005 186.58 32.5688 187.03 32.0721C187.479 31.5636 187.905 31.0255 188.307 30.4579C187.964 30.2568 187.662 29.9907 187.402 29.6596C187.142 29.3166 186.923 28.9323 186.746 28.5065C186.568 28.069 186.432 27.6018 186.338 27.1051C186.255 26.6084 186.214 26.0999 186.214 25.5796C186.214 25.0592 186.279 24.5684 186.409 24.1072C186.539 23.646 186.716 23.2439 186.941 22.9009C187.178 22.5462 187.45 22.2682 187.757 22.0672C188.064 21.8661 188.402 21.7656 188.768 21.7656C189.099 21.7656 189.395 21.8543 189.655 22.0317C189.915 22.1973 190.134 22.4338 190.311 22.7413C190.489 23.0369 190.625 23.3917 190.719 23.8056C190.814 24.2196 190.861 24.663 190.861 25.1361C190.861 25.4909 190.832 25.8811 190.773 26.3069C190.714 26.7326 190.625 27.1643 190.507 27.6018C190.4 28.0276 190.264 28.4533 190.099 28.8791C189.945 29.293 189.762 29.6655 189.549 29.9966ZM187.136 25.5796C187.136 25.9225 187.166 26.2951 187.225 26.6971C187.284 27.0992 187.379 27.4895 187.509 27.8679C187.639 28.2464 187.804 28.6012 188.005 28.9323C188.206 29.2516 188.455 29.5059 188.75 29.6951C188.963 29.2812 189.141 28.8613 189.283 28.4356C189.436 27.998 189.56 27.5782 189.655 27.1761C189.762 26.774 189.832 26.4015 189.868 26.0585C189.915 25.7037 189.939 25.3963 189.939 25.1361C189.939 24.7813 189.909 24.4561 189.85 24.1604C189.791 23.8648 189.708 23.6105 189.602 23.3976C189.507 23.1729 189.383 23.0015 189.229 22.8832C189.087 22.7531 188.928 22.6881 188.75 22.6881C188.514 22.6881 188.295 22.7709 188.094 22.9364C187.893 23.0902 187.722 23.303 187.58 23.575C187.438 23.8352 187.325 24.1427 187.243 24.4975C187.172 24.8404 187.136 25.2011 187.136 25.5796Z" fill="white"/>
<path d="M164.66 20.8964C164.601 21.0029 164.524 21.1211 164.429 21.2512C164.335 21.3695 164.24 21.5114 164.146 21.677C164.063 21.8307 163.986 22.014 163.915 22.2269C163.856 22.4397 163.826 22.694 163.826 22.9897C163.826 23.238 163.885 23.5751 164.004 24.0008C164.134 24.4265 164.27 24.9173 164.412 25.4732C164.554 26.0172 164.684 26.6144 164.802 27.2648C164.932 27.9034 164.997 28.5657 164.997 29.2516C164.997 30.2569 164.861 31.1438 164.589 31.9125C164.317 32.6812 163.956 33.3376 163.507 33.8816C164.429 33.3849 165.334 32.6753 166.221 31.7529C167.108 30.8186 168.001 29.636 168.9 28.205L169.503 28.7372C168.994 29.5768 168.415 30.4106 167.764 31.2384C167.126 32.0544 166.422 32.7936 165.654 33.4558C164.885 34.1063 164.057 34.6325 163.17 35.0346C162.283 35.4485 161.343 35.6555 160.349 35.6555C159.463 35.6555 158.717 35.4426 158.114 35.0169C157.499 34.603 157.121 33.9762 156.979 33.1365L157.618 33.0124C157.618 33.0833 157.653 33.2016 157.724 33.3671C157.783 33.5209 157.884 33.6746 158.026 33.8284C158.168 33.9821 158.363 34.1181 158.611 34.2364C158.848 34.3546 159.143 34.4138 159.498 34.4138C159.971 34.4138 160.391 34.3073 160.757 34.0945C161.124 33.8698 161.443 33.58 161.715 33.2252C161.987 32.8704 162.218 32.4684 162.407 32.019C162.596 31.5577 162.744 31.0847 162.851 30.5998C162.969 30.1149 163.052 29.6419 163.099 29.1807C163.146 28.7195 163.17 28.2996 163.17 27.9212C163.17 27.5427 163.152 27.1229 163.117 26.6617C163.093 26.2005 163.064 25.7629 163.028 25.349C162.993 24.9232 162.957 24.5566 162.922 24.2492C162.898 23.9298 162.886 23.7229 162.886 23.6283V23.5928C162.732 23.7584 162.549 24.0008 162.336 24.3201C162.123 24.6394 161.893 24.9883 161.644 25.3667C161.408 25.7452 161.165 26.1295 160.917 26.5198C160.681 26.91 160.462 27.2648 160.261 27.5841C160.072 27.9034 159.912 28.1695 159.782 28.3824C159.664 28.5834 159.604 28.6899 159.604 28.7017L158.966 28.205C158.978 28.1932 159.125 27.9389 159.409 27.4422C159.693 26.9455 160.066 26.3187 160.527 25.5619C161 24.7932 161.532 23.9476 162.123 23.0251C162.715 22.0909 163.324 21.1862 163.951 20.311L164.66 20.8964Z" fill="white"/>
<path d="M147.365 30.777C147.341 30.9189 147.323 31.0608 147.311 31.2028C147.3 31.3447 147.294 31.4866 147.294 31.6285C147.294 32.0542 147.353 32.4623 147.471 32.8525C147.601 33.231 147.784 33.568 148.021 33.8637C148.269 34.1475 148.571 34.3722 148.926 34.5377C149.292 34.7033 149.706 34.7861 150.167 34.7861C151.717 34.7861 153.213 34.2598 154.655 33.2073C156.098 32.1548 157.535 30.4873 158.966 28.2048L159.569 28.737C158.789 30.0379 157.996 31.1377 157.192 32.0365C156.388 32.9235 155.584 33.6449 154.78 34.2007C153.987 34.7565 153.207 35.1586 152.438 35.407C151.669 35.6553 150.936 35.7795 150.238 35.7795C149.73 35.7795 149.192 35.7085 148.624 35.5666C148.056 35.4247 147.53 35.1882 147.045 34.8571C146.572 34.5259 146.182 34.0824 145.874 33.5266C145.555 32.9708 145.396 32.2789 145.396 31.4511C145.396 30.5641 145.549 29.7127 145.857 28.8967C146.152 28.0688 146.543 27.3001 147.028 26.5906C147.512 25.881 148.068 25.2365 148.695 24.657C149.322 24.0657 149.955 23.563 150.593 23.1491C151.244 22.7352 151.876 22.4159 152.491 22.1912C153.106 21.9547 153.65 21.8364 154.123 21.8364C154.431 21.8364 154.744 21.8837 155.063 21.9783C155.383 22.0729 155.667 22.2208 155.915 22.4218C156.175 22.6229 156.382 22.889 156.536 23.2201C156.701 23.5512 156.784 23.9474 156.784 24.4086C156.784 25.0354 156.636 25.6267 156.341 26.1825C156.057 26.7266 155.672 27.2351 155.188 27.7081C154.703 28.1693 154.141 28.5892 153.502 28.9676C152.864 29.3342 152.196 29.6476 151.498 29.9078C150.8 30.168 150.096 30.3749 149.387 30.5287C148.677 30.6824 148.003 30.7652 147.365 30.777ZM147.506 30.0142C148.299 29.9314 149.044 29.7659 149.742 29.5175C150.439 29.2692 151.078 28.9676 151.657 28.6128C152.237 28.2462 152.751 27.85 153.201 27.4243C153.662 26.9986 154.046 26.5669 154.354 26.1293C154.661 25.6918 154.898 25.2719 155.063 24.8698C155.229 24.4678 155.312 24.1071 155.312 23.7877C155.312 23.4684 155.223 23.2142 155.046 23.025C154.88 22.8357 154.679 22.7411 154.443 22.7411C153.922 22.7411 153.337 22.9303 152.686 23.3088C152.036 23.6754 151.385 24.1898 150.735 24.8521C150.085 25.5025 149.47 26.2712 148.89 27.1582C148.322 28.0452 147.861 28.9972 147.506 30.0142Z" fill="white"/>
<path d="M147.382 19.0868C147.382 19.3234 147.323 19.5717 147.205 19.8319C147.086 20.0802 146.933 20.3049 146.744 20.506C146.566 20.707 146.365 20.8726 146.14 21.0027C145.916 21.1328 145.691 21.1978 145.466 21.1978C145.265 21.1978 145.111 21.1268 145.005 20.9849C144.899 20.8312 144.845 20.6479 144.845 20.435C144.845 20.2458 144.881 20.0211 144.952 19.7609C145.023 19.5007 145.129 19.2583 145.271 19.0336C145.413 18.7971 145.585 18.596 145.786 18.4305C145.987 18.2649 146.217 18.1821 146.477 18.1821C146.726 18.1821 146.939 18.2767 147.116 18.466C147.293 18.6552 147.382 18.8621 147.382 19.0868ZM144.065 23.025C143.911 23.3324 143.692 23.7404 143.409 24.249C143.137 24.7457 142.841 25.2956 142.522 25.8987C142.202 26.49 141.877 27.1168 141.546 27.7791C141.215 28.4295 140.913 29.0681 140.641 29.6949C140.381 30.3099 140.168 30.8894 140.003 31.4334C139.837 31.9774 139.754 32.4386 139.754 32.817C139.754 33.16 139.825 33.3965 139.967 33.5266C140.109 33.6449 140.31 33.704 140.57 33.704C141.055 33.704 141.528 33.5443 141.989 33.225C142.451 32.9057 142.906 32.4918 143.355 31.9833C143.817 31.4629 144.266 30.8716 144.703 30.2094C145.141 29.5471 145.579 28.8789 146.016 28.2048L146.655 28.7015C146.312 29.3165 145.922 29.9728 145.484 30.6706C145.058 31.3683 144.579 32.0188 144.047 32.6219C143.515 33.2132 142.93 33.704 142.291 34.0943C141.652 34.4845 140.955 34.6797 140.198 34.6797C139.488 34.6797 138.944 34.4668 138.566 34.041C138.187 33.6153 137.998 33.0654 137.998 32.3913C137.998 31.5989 138.181 30.7711 138.548 29.9078C138.915 29.0445 139.37 28.193 139.914 27.3533C140.47 26.5018 141.067 25.6858 141.706 24.9053C142.356 24.1248 142.953 23.4152 143.497 22.7766L144.065 23.025Z" fill="white"/>
<path d="M137.111 24.0539C137.182 23.8647 137.218 23.6637 137.218 23.4508C137.218 23.0724 137.064 22.7767 136.756 22.5638C136.461 22.3392 135.988 22.2268 135.337 22.2268C134.805 22.2268 134.267 22.3451 133.723 22.5816C133.191 22.8063 132.676 23.1197 132.18 23.5218C131.683 23.9239 131.216 24.4028 130.778 24.9587C130.353 25.5145 129.98 26.1176 129.661 26.7681C129.353 27.4185 129.105 28.1103 128.916 28.8436C128.738 29.5649 128.65 30.2923 128.65 31.0255C128.65 31.6168 128.715 32.1194 128.845 32.5333C128.975 32.9472 129.158 33.2843 129.395 33.5445C129.631 33.8046 129.915 33.9939 130.246 34.1121C130.577 34.2186 130.95 34.2718 131.364 34.2718C132.18 34.2718 132.972 34.0885 133.741 33.7219C134.509 33.3552 135.237 32.8822 135.923 32.3027C136.62 31.7114 137.259 31.055 137.839 30.3337C138.43 29.6123 138.95 28.9027 139.4 28.2049L140.056 28.7016C139.417 29.7778 138.737 30.7239 138.016 31.5399C137.295 32.3441 136.555 33.0182 135.798 33.5622C135.042 34.1062 134.273 34.5142 133.492 34.7862C132.712 35.0582 131.949 35.1942 131.204 35.1942C130.613 35.1942 130.045 35.1055 129.501 34.9281C128.969 34.7507 128.496 34.4846 128.082 34.1299C127.68 33.7632 127.355 33.2961 127.106 32.7285C126.87 32.1608 126.751 31.4867 126.751 30.7062C126.751 29.7837 126.882 28.9145 127.142 28.0985C127.414 27.2707 127.769 26.5079 128.206 25.8101C128.655 25.1124 129.17 24.4856 129.749 23.9298C130.329 23.3621 130.932 22.8832 131.559 22.4929C132.197 22.1026 132.836 21.807 133.475 21.6059C134.125 21.3931 134.734 21.2866 135.302 21.2866C135.881 21.2866 136.354 21.3694 136.721 21.535C137.088 21.6887 137.377 21.8779 137.59 22.1026C137.803 22.3273 137.945 22.5638 138.016 22.8122C138.099 23.0605 138.14 23.2734 138.14 23.4508C138.14 23.7346 138.099 24.0362 138.016 24.3555C137.933 24.6748 137.815 24.9705 137.661 25.2425C137.519 25.5027 137.336 25.7214 137.111 25.8988C136.898 26.0762 136.662 26.1649 136.402 26.1649C136.141 26.1649 135.917 26.0821 135.728 25.9166C135.538 25.7392 135.444 25.5204 135.444 25.2602C135.444 25.2484 135.45 25.1774 135.461 25.0473C135.485 24.9173 135.544 24.7813 135.639 24.6393C135.733 24.4856 135.875 24.3496 136.065 24.2313C136.266 24.1131 136.544 24.0539 136.898 24.0539H137.111Z" fill="white"/>
<path d="M125.137 23.0255C124.984 23.333 124.765 23.7351 124.481 24.2318C124.209 24.7285 123.913 25.2784 123.594 25.8815C123.275 26.4728 122.95 27.0937 122.618 27.7441C122.299 28.3946 122.004 29.0332 121.731 29.66C121.471 30.2749 121.253 30.8603 121.075 31.4162C120.91 31.9602 120.827 32.4214 120.827 32.7998C120.827 33.1783 120.898 33.4266 121.04 33.5449C121.193 33.6513 121.389 33.7045 121.625 33.7045C121.968 33.7045 122.317 33.604 122.672 33.403C123.038 33.2019 123.393 32.9417 123.736 32.6224C124.091 32.3031 124.434 31.9424 124.765 31.5403C125.096 31.1383 125.404 30.7362 125.687 30.3341C125.983 29.9202 126.249 29.5299 126.486 29.1633C126.722 28.7848 126.923 28.4655 127.089 28.2054L127.727 28.7021C127.526 29.0805 127.29 29.4885 127.018 29.9261C126.746 30.3636 126.444 30.8071 126.113 31.2565C125.794 31.6941 125.445 32.1198 125.066 32.5337C124.688 32.9477 124.286 33.3143 123.86 33.6336C123.446 33.9529 123.009 34.2071 122.548 34.3964C122.086 34.5856 121.613 34.6802 121.128 34.6802C120.419 34.6802 119.898 34.4673 119.567 34.0416C119.236 33.6158 119.071 33.0659 119.071 32.3918C119.071 32.3445 119.071 32.244 119.071 32.0903C119.082 31.9247 119.1 31.7946 119.124 31.7C118.533 32.445 117.965 33.06 117.421 33.5449C116.889 34.0298 116.368 34.4141 115.86 34.6979C115.363 34.9818 114.878 35.1769 114.405 35.2833C113.944 35.4016 113.5 35.4607 113.075 35.4607C112.625 35.4607 112.2 35.3839 111.798 35.2301C111.407 35.0882 111.064 34.8753 110.769 34.5915C110.461 34.3077 110.225 33.9588 110.059 33.5449C109.882 33.131 109.793 32.652 109.793 32.108C109.793 31.4339 109.947 30.6652 110.254 29.8019C110.55 28.9268 111.082 27.9866 111.851 26.9814C112.501 26.118 113.175 25.3907 113.873 24.7994C114.583 24.2081 115.274 23.7351 115.948 23.3803C116.634 23.0137 117.285 22.7535 117.9 22.5998C118.515 22.446 119.065 22.3691 119.55 22.3691C120.638 22.3691 121.459 22.5524 122.015 22.9191C122.571 23.2738 122.908 23.8238 123.026 24.5688C123.263 24.2732 123.511 23.9775 123.772 23.6818C124.032 23.3862 124.298 23.0846 124.57 22.7771L125.137 23.0255ZM119.691 29.7664C119.845 29.5181 120.034 29.2047 120.259 28.8262C120.484 28.436 120.72 28.0398 120.969 27.6377C121.217 27.2238 121.459 26.8276 121.696 26.4492C121.933 26.0707 122.14 25.7514 122.317 25.4913C122.317 25.3848 122.299 25.2133 122.264 24.9768C122.24 24.7403 122.163 24.5038 122.033 24.2672C121.903 24.0189 121.696 23.806 121.412 23.6286C121.128 23.4512 120.732 23.3625 120.224 23.3625C119.857 23.3625 119.443 23.4217 118.982 23.5399C118.533 23.6464 118.048 23.8356 117.527 24.1076C117.019 24.3678 116.493 24.7166 115.948 25.1542C115.404 25.5918 114.86 26.1358 114.316 26.7862C113.5 27.7678 112.868 28.7553 112.418 29.7487C111.981 30.7303 111.762 31.6172 111.762 32.4096C111.762 33.0837 111.916 33.604 112.223 33.9706C112.531 34.3372 112.968 34.5205 113.536 34.5205C114.186 34.5205 114.795 34.3786 115.363 34.0948C115.931 33.7991 116.463 33.4207 116.96 32.9595C117.456 32.4983 117.929 31.9897 118.379 31.4339C118.828 30.8663 119.266 30.3104 119.691 29.7664Z" fill="white"/>
<path d="M101.402 34.2186C100.787 34.6326 100.149 34.9637 99.4863 35.212C98.8359 35.4722 98.2091 35.6023 97.606 35.6023C97.1566 35.6023 96.7072 35.5373 96.2578 35.4072C95.8084 35.2771 95.4004 35.0642 95.0338 34.7686C94.6671 34.4611 94.3715 34.059 94.1468 33.5623C93.9103 33.0656 93.792 32.4506 93.792 31.7174C93.792 30.8304 93.9517 29.9789 94.271 29.1629C94.5903 28.3469 95.016 27.5901 95.5482 26.8923C96.0804 26.1827 96.6894 25.5382 97.3753 24.9587C98.0613 24.3793 98.7649 23.8885 99.4863 23.4864C100.22 23.0725 100.947 22.7531 101.668 22.5285C102.39 22.3038 103.046 22.1914 103.637 22.1914C104.217 22.1914 104.708 22.2565 105.11 22.3865C105.524 22.5048 105.872 22.6585 106.156 22.8478C106.44 23.0252 106.665 23.2203 106.83 23.4332C106.996 23.646 107.132 23.8471 107.238 24.0363L108.196 22.7768L108.782 23.1671C108.782 23.1789 108.687 23.3681 108.498 23.7347C108.309 24.0895 108.06 24.5685 107.753 25.1716C107.445 25.7747 107.085 26.4843 106.671 27.3003C106.269 28.1045 105.843 28.9619 105.393 29.8725C104.956 30.7831 104.507 31.7233 104.045 32.6931C103.596 33.6628 103.164 34.6148 102.75 35.5491C103.827 34.9341 104.773 34.3428 105.589 33.7752C106.405 33.2075 107.132 32.6339 107.771 32.0544C108.421 31.475 109.006 30.8718 109.527 30.245C110.047 29.6182 110.55 28.9382 111.035 28.205L111.691 28.7017C111.218 29.4704 110.703 30.1859 110.148 30.8482C109.604 31.4986 108.959 32.1491 108.214 32.7995C107.481 33.4381 106.618 34.1004 105.624 34.7863C104.643 35.4604 103.472 36.2054 102.112 37.0214C100.988 39.7769 99.9061 42.0535 98.8654 43.8511C97.8247 45.6605 96.8372 47.0914 95.903 48.144C94.9805 49.1965 94.1231 49.9356 93.3308 50.3614C92.5266 50.7871 91.8052 51 91.1666 51C90.9064 51 90.6285 50.9645 90.3328 50.8936C90.0254 50.8344 89.7415 50.7102 89.4814 50.521C89.2212 50.3318 89.0083 50.0716 88.8427 49.7405C88.6654 49.4094 88.5767 48.9836 88.5767 48.4633C88.5767 47.4699 88.8427 46.4883 89.3749 45.5186C89.8953 44.5488 90.6581 43.585 91.6633 42.6271C92.6567 41.6691 93.8748 40.7171 95.3176 39.771C96.7722 38.8249 98.416 37.8729 100.249 36.915C100.474 36.4065 100.681 35.9216 100.87 35.4604C101.059 35.011 101.237 34.5971 101.402 34.2186ZM102.325 32.2673C102.644 31.6642 102.957 31.0729 103.265 30.4934C103.584 29.9021 103.909 29.3167 104.24 28.7372C104.583 28.1459 104.944 27.5428 105.323 26.9278C105.713 26.3128 106.144 25.6742 106.618 25.012C106.594 24.8346 106.535 24.6513 106.44 24.462C106.346 24.2728 106.215 24.1013 106.05 23.9476C105.884 23.782 105.671 23.646 105.411 23.5396C105.151 23.4332 104.844 23.3799 104.489 23.3799C104.087 23.3799 103.625 23.4332 103.105 23.5396C102.597 23.646 102.059 23.8293 101.491 24.0895C100.923 24.3497 100.344 24.6986 99.7524 25.1361C99.1729 25.5737 98.6053 26.1236 98.0494 26.7859C97.2334 27.7556 96.6066 28.7254 96.1691 29.6951C95.7315 30.653 95.5127 31.5282 95.5127 32.3205C95.5127 33.0892 95.7078 33.6746 96.0981 34.0767C96.4884 34.467 97.0206 34.6621 97.6946 34.6621C98.4042 34.6621 99.1552 34.4433 99.9475 34.0058C100.752 33.5682 101.544 32.9887 102.325 32.2673ZM91.1666 50.0953C91.616 50.0953 92.0831 49.9297 92.568 49.5986C93.0529 49.2675 93.5437 48.8121 94.0404 48.2327C94.5371 47.665 95.0278 47.0027 95.5127 46.2459C95.9976 45.489 96.4766 44.6789 96.9496 43.8156C97.4226 42.9641 97.872 42.089 98.2978 41.1902C98.7354 40.2914 99.1493 39.4103 99.5395 38.547C97.7774 39.4695 96.2696 40.4274 95.016 41.4208C93.7743 42.426 92.7572 43.3839 91.9649 44.2945C91.1725 45.2052 90.5989 46.0271 90.2442 46.7603C89.8775 47.4935 89.6942 48.0553 89.6942 48.4455C89.6942 48.9304 89.8007 49.3266 90.0135 49.6341C90.2264 49.9415 90.6108 50.0953 91.1666 50.0953Z" fill="white"/>
<path d="M83.0423 30.777C83.0186 30.9189 83.0009 31.0608 82.9891 31.2028C82.9773 31.3447 82.9713 31.4866 82.9713 31.6285C82.9713 32.0542 83.0305 32.4623 83.1487 32.8525C83.2788 33.231 83.4621 33.568 83.6987 33.8637C83.947 34.1475 84.2486 34.3722 84.6034 34.5377C84.97 34.7033 85.3839 34.7861 85.8451 34.7861C87.3943 34.7861 88.8903 34.2598 90.3331 33.2073C91.7759 32.1548 93.2128 30.4873 94.6438 28.2048L95.2469 28.737C94.4664 30.0379 93.674 31.1377 92.8699 32.0365C92.0657 32.9235 91.2615 33.6449 90.4573 34.2007C89.665 34.7565 88.8844 35.1586 88.1157 35.407C87.347 35.6553 86.6138 35.7795 85.9161 35.7795C85.4075 35.7795 84.8694 35.7085 84.3018 35.5666C83.7341 35.4247 83.2079 35.1882 82.723 34.8571C82.2499 34.5259 81.8597 34.0824 81.5522 33.5266C81.2329 32.9708 81.0732 32.2789 81.0732 31.4511C81.0732 30.5641 81.227 29.7127 81.5345 28.8967C81.8301 28.0688 82.2204 27.3001 82.7053 26.5906C83.1901 25.881 83.746 25.2365 84.3727 24.657C84.9995 24.0657 85.6322 23.563 86.2708 23.1491C86.9213 22.7352 87.554 22.4159 88.169 22.1912C88.7839 21.9547 89.3279 21.8364 89.801 21.8364C90.1084 21.8364 90.4218 21.8837 90.7411 21.9783C91.0605 22.0729 91.3443 22.2208 91.5926 22.4218C91.8528 22.6229 92.0598 22.889 92.2135 23.2201C92.3791 23.5512 92.4619 23.9474 92.4619 24.4086C92.4619 25.0354 92.314 25.6267 92.0184 26.1825C91.7345 26.7266 91.3502 27.2351 90.8653 27.7081C90.3804 28.1693 89.8187 28.5892 89.1801 28.9676C88.5415 29.3342 87.8733 29.6476 87.1756 29.9078C86.4778 30.168 85.7741 30.3749 85.0646 30.5287C84.355 30.6824 83.6809 30.7652 83.0423 30.777ZM83.1842 30.0142C83.9766 29.9314 84.7216 29.7659 85.4194 29.5175C86.1171 29.2692 86.7557 28.9676 87.3352 28.6128C87.9147 28.2462 88.4291 27.85 88.8785 27.4243C89.3397 26.9986 89.7241 26.5669 90.0316 26.1293C90.3391 25.6918 90.5756 25.2719 90.7411 24.8698C90.9067 24.4678 90.9895 24.1071 90.9895 23.7877C90.9895 23.4684 90.9008 23.2142 90.7234 23.025C90.5578 22.8357 90.3568 22.7411 90.1203 22.7411C89.5999 22.7411 89.0145 22.9303 88.3641 23.3088C87.7136 23.6754 87.0632 24.1898 86.4128 24.8521C85.7623 25.5025 85.1474 26.2712 84.5679 27.1582C84.0002 28.0452 83.539 28.9972 83.1842 30.0142Z" fill="white"/>
<path d="M72.3805 37.1099C71.6118 37.1099 70.8313 37.039 70.0389 36.897C69.2584 36.7669 68.4661 36.5896 67.6619 36.3649C66.8577 36.152 66.0535 35.9155 65.2493 35.6553C64.4452 35.3951 63.6528 35.1408 62.8723 34.8925C61.938 35.4602 60.9624 35.9036 59.9453 36.2229C58.9282 36.5541 57.858 36.7196 56.7345 36.7196C55.7766 36.7196 55.0433 36.5482 54.5348 36.2052C54.0263 35.8622 53.772 35.4069 53.772 34.8393C53.772 34.0942 54.1859 33.5207 55.0138 33.1186C55.8416 32.7165 57.0952 32.5154 58.7745 32.5154C59.5077 32.5154 60.2469 32.5687 60.9919 32.6751C61.737 32.7815 62.4938 32.9175 63.2625 33.0831C64.0076 32.4327 64.7172 31.6994 65.3913 30.8834C66.0653 30.0674 66.7217 29.1923 67.3603 28.258C66.8754 28.3171 66.3847 28.3644 65.888 28.3999C65.3913 28.4236 64.8886 28.4354 64.3801 28.4354C62.5234 28.4354 60.8677 28.2166 59.4131 27.7791C57.9585 27.3297 56.7286 26.7206 55.7234 25.9519C54.7181 25.1714 53.9494 24.2608 53.4172 23.2201C52.8969 22.1675 52.6367 21.0381 52.6367 19.8319C52.6367 18.4127 52.9087 17.1532 53.4527 16.0534C53.9967 14.9536 54.7418 14.0311 55.6879 13.2861C56.6458 12.5292 57.7693 11.9556 59.0583 11.5654C60.3474 11.1633 61.7311 10.9622 63.2093 10.9622C64.1436 10.9622 64.9951 11.0332 65.7638 11.1751C66.5325 11.317 67.1947 11.4707 67.7506 11.6363C68.3182 11.8019 68.7617 11.9615 69.081 12.1153C69.4003 12.269 69.5777 12.3518 69.6132 12.3636L69.152 13.1619C69.1402 13.1619 68.9923 13.0968 68.7085 12.9668C68.4247 12.8248 68.0344 12.677 67.5377 12.5233C67.041 12.3695 66.4497 12.2276 65.7638 12.0975C65.0779 11.9674 64.3387 11.9024 63.5464 11.9024C62.1509 11.9024 60.8973 12.1094 59.7856 12.5233C58.6858 12.9254 57.7515 13.4812 56.9828 14.1908C56.226 14.9003 55.6406 15.7341 55.2267 16.692C54.8246 17.6381 54.6235 18.6492 54.6235 19.7254C54.6235 20.9317 54.9014 22.0138 55.4573 22.9717C56.0131 23.9178 56.7581 24.722 57.6924 25.3842C58.6267 26.0347 59.7088 26.5314 60.9387 26.8743C62.1804 27.2173 63.4813 27.3888 64.8413 27.3888C65.3972 27.3888 65.9412 27.371 66.4734 27.3356C67.0174 27.3001 67.5554 27.241 68.0876 27.1582C68.9273 25.8455 69.7374 24.4855 70.5179 23.0781C71.3103 21.6708 72.0967 20.2931 72.8772 18.9449C73.6578 17.5967 74.4442 16.3195 75.2366 15.1132C76.0289 13.8951 76.8508 12.8308 77.7023 11.9201C78.5656 11.0095 79.4703 10.2881 80.4164 9.75595C81.3625 9.21194 82.3796 8.93994 83.4676 8.93994C83.8933 8.93994 84.2895 9.0109 84.6561 9.15281C85.0227 9.2829 85.342 9.48986 85.614 9.77369C85.886 10.0457 86.0989 10.3946 86.2526 10.8203C86.4064 11.246 86.4833 11.7427 86.4833 12.3104C86.4833 13.2328 86.3059 14.2085 85.9511 15.2374C85.5963 16.2544 85.0819 17.2774 84.4078 18.3063C83.7337 19.3233 82.9117 20.3286 81.942 21.322C80.9723 22.3035 79.8724 23.2141 78.6425 24.0538C77.4126 24.8935 76.0644 25.6444 74.5979 26.3067C73.1315 26.9571 71.5704 27.4657 69.9148 27.8323C69.1342 28.9085 68.3301 29.9255 67.5022 30.8834C66.6744 31.8295 65.7993 32.6869 64.8768 33.4556C65.7756 33.6921 66.6567 33.9464 67.52 34.2184C68.3833 34.4786 69.1993 34.7151 69.968 34.928C70.7485 35.1527 71.4699 35.336 72.1322 35.4779C72.7944 35.6316 73.3798 35.7085 73.8884 35.7085C74.6452 35.7085 75.3726 35.5784 76.0703 35.3182C76.7799 35.0581 77.4835 34.5968 78.1813 33.9346L78.9086 34.5022C78.8968 34.5141 78.8317 34.5909 78.7135 34.7328C78.5952 34.8629 78.4178 35.0226 78.1813 35.2118C77.9447 35.4129 77.6491 35.6198 77.2943 35.8327C76.9395 36.0574 76.5197 36.2643 76.0348 36.4536C75.5618 36.6428 75.0178 36.7965 74.4028 36.9148C73.7997 37.0449 73.1256 37.1099 72.3805 37.1099ZM83.5385 9.9156C82.8763 9.9156 82.2199 10.1521 81.5695 10.6252C80.919 11.0982 80.2627 11.7427 79.6004 12.5588C78.9381 13.3629 78.2641 14.3149 77.5781 15.4148C76.904 16.5028 76.2063 17.6677 75.4849 18.9094C74.7635 20.1393 74.0125 21.4107 73.232 22.7234C72.4515 24.0361 71.6355 25.3251 70.784 26.5905C72.2031 26.2003 73.5513 25.6917 74.8286 25.0649C76.1176 24.4382 77.3061 23.7345 78.3941 22.954C79.494 22.1734 80.4815 21.3397 81.3566 20.4527C82.2436 19.5539 82.9945 18.6374 83.6095 17.7031C84.2363 16.7689 84.7152 15.8464 85.0464 14.9358C85.3775 14.0134 85.5431 13.1323 85.5431 12.2927C85.5431 11.8551 85.4899 11.4885 85.3834 11.1928C85.277 10.8853 85.1292 10.637 84.9399 10.4478C84.7625 10.2586 84.5497 10.1226 84.3013 10.0398C84.0648 9.95699 83.8105 9.9156 83.5385 9.9156ZM56.6281 35.7972C57.5032 35.7972 58.331 35.673 59.1116 35.4247C59.8921 35.1882 60.649 34.857 61.3822 34.4313C60.6017 34.2066 59.8448 34.0233 59.1116 33.8814C58.3902 33.7394 57.6924 33.6685 57.0183 33.6685C56.2141 33.6685 55.6228 33.7868 55.2444 34.0233C54.8778 34.2598 54.6945 34.5318 54.6945 34.8393C54.6945 34.9339 54.7181 35.0344 54.7654 35.1408C54.8246 35.2591 54.9251 35.3655 55.067 35.4602C55.2089 35.5548 55.404 35.6316 55.6524 35.6908C55.9007 35.7617 56.226 35.7972 56.6281 35.7972Z" fill="white"/>
</svg>
