<svg width="43" height="47" viewBox="0 0 43 47" fill="none" xmlns="http://www.w3.org/2000/svg">
<path d="M21.0108 0C23.1563 0 25.1725 0.84559 26.689 2.37986C28.2054 3.91412 29.0412 5.954 29.0412 8.12464C29.0412 12.6054 25.4396 16.2493 21.0108 16.2493C18.8654 16.2493 16.8492 15.4037 15.3327 13.8694C13.8162 12.3352 12.9804 10.2953 12.9804 8.12464C12.9804 5.954 13.8162 3.91412 15.3327 2.37986C16.8492 0.84559 18.8654 0 21.0108 0Z" fill="white"/>
<path d="M19.8821 42.5062C15.1518 39.5422 10.1758 34.1723 8.47413 29.3036H0.357574C2.33501 37.2103 14.5012 45.797 19.8821 46.9913V42.5062Z" fill="white"/>
<path d="M22.0836 42.5367V47C27.4386 45.8449 39.678 37.2321 41.6598 29.2993H33.5432C31.8329 34.1854 26.8311 39.5771 22.0879 42.5323L22.0836 42.5367Z" fill="white"/>
<path d="M38.084 16.2711C35.3225 13.4771 32.4059 12.3831 29.9589 12.0518C29.485 13.2984 28.7526 14.4404 27.7919 15.4168C25.9824 17.2474 23.5742 18.2586 21.0108 18.2586C18.4475 18.2586 16.0435 17.2474 14.2298 15.4168C13.2691 14.4448 12.5367 13.2984 12.0628 12.0518C9.61577 12.3875 6.69916 13.4771 3.93763 16.2711C1.08133 19.1565 -0.275736 23.0227 0.047375 27.2463H7.95714C7.65556 25.2108 8.06915 23.3453 9.49945 21.8982C14.9406 16.3931 21.0065 23.9119 21.0065 23.9119C21.0065 23.9119 27.0724 16.3931 32.5136 21.8982C33.9439 23.3453 34.3575 25.2064 34.0559 27.2463H41.9657C42.2888 23.0227 40.9317 19.1609 38.0754 16.2711H38.084Z" fill="white"/>
</svg>
