<svg width="64" height="64" viewBox="0 0 64 64" fill="none" xmlns="http://www.w3.org/2000/svg">
<path d="M55.2101 12.26V12.2C55.4989 11.3777 55.4507 10.4745 55.076 9.68766C54.7013 8.90078 54.0305 8.29408 53.2101 7.99999L50.5601 7.07999C49.7377 6.79391 48.8357 6.84341 48.0495 7.21777C47.2634 7.59214 46.6564 8.2612 46.3601 9.07999L34.9401 41.88C34.8801 42.04 36.2101 49.3 36.2101 49.3C35.2101 52.16 32.7801 53.3 31.9501 53.14C31.6201 53.08 31.9501 51.74 32.0201 51.34C32.3101 49.02 30.5001 47.74 28.2801 51.25C27.9401 51.79 27.1001 53.05 26.7401 52.97C26.3801 52.89 26.6401 51.67 26.7401 51.2C27.0801 49.01 26.8101 46.11 21.3901 50.65C19.4501 52.27 16.8301 54.54 15.3001 54.08C14.7801 53.92 13.7601 52.7 14.0801 52.48C16.8901 50.56 20.9101 45 20.3401 42C20.2659 41.5042 20.0376 41.0444 19.6877 40.6855C19.3378 40.3266 18.8838 40.0868 18.3901 40C17.6467 39.8435 16.8747 39.893 16.1574 40.1433C15.4401 40.3936 14.8048 40.835 14.3201 41.42C12.0001 44 11.1901 48.93 11.6301 51.67C9.68312 52.8162 7.64646 53.8028 5.5401 54.62C5.41666 54.6653 5.30335 54.7345 5.20664 54.8236C5.10993 54.9127 5.03172 55.0199 4.97647 55.1393C4.92122 55.2586 4.89001 55.3876 4.88463 55.519C4.87925 55.6504 4.8998 55.7815 4.9451 55.905C4.99041 56.0284 5.05958 56.1417 5.14868 56.2385C5.23778 56.3352 5.34505 56.4134 5.46437 56.4686C5.5837 56.5239 5.71273 56.5551 5.84412 56.5605C5.9755 56.5658 6.10666 56.5453 6.2301 56.5C8.303 55.6999 10.3093 54.7369 12.2301 53.62C12.4421 54.1719 12.7721 54.6708 13.197 55.0819C13.6219 55.493 14.1315 55.8063 14.6901 56C17.2601 56.77 20.2501 54.23 22.6901 52.18C23.3601 51.61 24.2101 50.89 24.7801 50.5C24.7801 50.69 24.5901 53.57 25.3101 54.38C25.4709 54.5665 25.6685 54.7179 25.8904 54.8245C26.1124 54.9312 26.354 54.9909 26.6001 55C28.0201 55.07 29.0001 53.68 29.9001 52.45C29.8074 53.2132 30.0194 53.9821 30.4901 54.59C30.6829 54.7961 30.9197 54.9562 31.1828 55.0583C31.4459 55.1605 31.7287 55.2021 32.0101 55.18C33.4141 54.9952 34.7346 54.4076 35.8118 53.4884C36.889 52.5691 37.6768 51.3575 38.0801 50C38.0801 50 43.7601 45.12 43.8201 45L54.5001 14.29C54.6201 13.85 56.5001 14.57 56.3101 15.37L53.5601 23.67C53.4766 23.9219 53.4965 24.1968 53.6156 24.434C53.7347 24.6712 53.9431 24.8514 54.1951 24.935C54.4471 25.0185 54.7219 24.9986 54.9591 24.8795C55.1963 24.7604 55.3766 24.5519 55.4601 24.3L58.2001 16C59.0001 13.74 56.4001 12.33 55.2101 12.26ZM15.7901 42.83C17.2201 41.32 18.2801 41.83 18.3701 42.38C18.6801 44.02 16.0001 48.38 13.5101 50.38C13.4401 48.06 14.2001 44.51 15.7901 42.83ZM49.9001 8.99999L52.5401 9.91999C52.7019 9.97612 52.8509 10.0637 52.9788 10.1776C53.1066 10.2915 53.2107 10.4295 53.285 10.5838C53.3594 10.738 53.4025 10.9054 53.4119 11.0764C53.4214 11.2473 53.397 11.4185 53.3401 11.58L53.1201 12.2L48.0001 10.38L48.2201 9.75999C48.3434 9.43747 48.5891 9.17668 48.9037 9.03436C49.2183 8.89203 49.5764 8.87968 49.9001 8.99999ZM47.3701 12.31L52.4701 14.09L42.2601 43.37L37.1601 41.6L47.3701 12.31ZM37.9101 47.54L37.1901 43.73L40.8901 45L37.9101 47.54Z" fill="#00539F"/>
</svg>
